<svg xmlns="http://www.w3.org/2000/svg" xmlns:xlink="http://www.w3.org/1999/xlink" version="1.1" x="0px" y="0px" viewBox="0 0 100 125" enable-background="new 0 0 100 100" xml:space="preserve"><path fill="#000000" d="M50,9.667C27.76,9.667,9.667,27.76,9.667,50S27.76,90.333,50,90.333S90.333,72.24,90.333,50  S72.24,9.667,50,9.667z M50,86.333c-20.034,0-36.333-16.299-36.333-36.333S29.966,13.667,50,13.667S86.333,29.966,86.333,50  S70.034,86.333,50,86.333z"/><path fill="#000000" d="M67.353,58.944c-9.568,9.568-25.138,9.568-34.706,0c-0.78-0.781-2.048-0.781-2.828,0  c-0.781,0.781-0.781,2.047,0,2.828c5.391,5.391,12.558,8.359,20.181,8.359s14.791-2.969,20.181-8.359  c0.781-0.781,0.781-2.047,0-2.828C69.401,58.163,68.133,58.163,67.353,58.944z"/><circle fill="#000000" cx="65.875" cy="41.167" r="6.375"/><circle fill="#000000" cx="34.125" cy="41.167" r="6.375"/><text x="0" y="115" fill="#000000" font-size="5px" font-weight="bold" font-family="'Helvetica Neue', Helvetica, Arial-Unicode, Arial, Sans-serif">Created by Alina Oleynik</text><text x="0" y="120" fill="#000000" font-size="5px" font-weight="bold" font-family="'Helvetica Neue', Helvetica, Arial-Unicode, Arial, Sans-serif">from the Noun Project</text></svg>