<svg xmlns="http://www.w3.org/2000/svg" xmlns:xlink="http://www.w3.org/1999/xlink" version="1.1" x="0px" y="0px" viewBox="0 0 100 125" style="enable-background:new 0 0 100 100;" xml:space="preserve"><style type="text/css">
	.st0{display:none;}
	.st1{display:inline;}
</style><g class="st0"><g class="st1"><path d="M50,2.5C23.8,2.5,2.5,23.8,2.5,50c0,26.2,21.3,47.5,47.5,47.5S97.5,76.2,97.5,50C97.5,23.8,76.2,2.5,50,2.5z M50,91.6    C27,91.6,8.4,73,8.4,50S27,8.4,50,8.4S91.6,27,91.6,50S73,91.6,50,91.6z"/><path d="M76.6,50c-1.5,0-2.8,1.2-3,2.7c-1.3,11.8-11.4,21-23.6,21c-12.2,0-22.3-9.2-23.6-21c-0.2-1.5-1.4-2.7-3-2.7    c-1.8,0-3.1,1.6-2.9,3.3C22.2,68.2,34.7,79.7,50,79.7c15.3,0,27.8-11.5,29.5-26.3C79.7,51.6,78.3,50,76.6,50z"/><circle cx="33.4" cy="36.9" r="5.7"/><circle cx="66.6" cy="36.9" r="5.7"/></g></g><g class="st0"><g class="st1"><path d="M50,2.5C23.8,2.5,2.5,23.8,2.5,50c0,26.2,21.3,47.5,47.5,47.5S97.5,76.2,97.5,50C97.5,23.8,76.2,2.5,50,2.5z M50,91.6    C27,91.6,8.4,73,8.4,50S27,8.4,50,8.4S91.6,27,91.6,50S73,91.6,50,91.6z"/><path d="M76.6,50L76.6,50H23.4l0,0c-1.8,0-3.1,1.6-2.9,3.3C22.2,68.2,34.7,79.7,50,79.7s27.8-11.5,29.5-26.3    C79.7,51.6,78.3,50,76.6,50z M50,73.8c-11.1,0-20.3-7.6-23-17.8h46C70.3,66.2,61.1,73.8,50,73.8z"/><circle cx="33.4" cy="36.9" r="5.7"/><circle cx="66.6" cy="36.9" r="5.7"/></g></g><g class="st0"><g class="st1"><path d="M50,2.5C23.8,2.5,2.5,23.8,2.5,50c0,26.2,21.3,47.5,47.5,47.5S97.5,76.2,97.5,50C97.5,23.8,76.2,2.5,50,2.5z M50,91.6    C27,91.6,8.4,73,8.4,50S27,8.4,50,8.4S91.6,27,91.6,50S73,91.6,50,91.6z"/><path d="M79.5,68.9C77.8,54.1,65.3,42.6,50,42.6S22.2,54.1,20.5,68.9c-0.2,1.8,1.2,3.3,2.9,3.3c1.5,0,2.8-1.2,3-2.7    c1.3-11.8,11.4-21,23.6-21c12.2,0,22.3,9.2,23.6,21c0.2,1.5,1.4,2.7,3,2.7C78.3,72.3,79.7,70.7,79.5,68.9z"/><circle cx="33.4" cy="32.6" r="5.7"/><circle cx="66.6" cy="32.6" r="5.7"/></g></g><g class="st0"><g class="st1"><path d="M50,2.5C23.8,2.5,2.5,23.8,2.5,50c0,26.2,21.3,47.5,47.5,47.5S97.5,76.2,97.5,50C97.5,23.8,76.2,2.5,50,2.5z M50,91.6    C27,91.6,8.4,73,8.4,50S27,8.4,50,8.4S91.6,27,91.6,50S73,91.6,50,91.6z"/><path d="M79.5,68.9C77.8,54.1,65.3,42.6,50,42.6S22.2,54.1,20.5,68.9c-0.2,1.8,1.2,3.3,2.9,3.3c0.1,0,0.2,0,0.3,0v0h53.1v0    C78.5,72.1,79.7,70.6,79.5,68.9z M50,48.5c11.1,0,20.3,7.6,23,17.8H27C29.7,56.1,38.9,48.5,50,48.5z"/><circle cx="33.4" cy="32.6" r="5.7"/><circle cx="66.6" cy="32.6" r="5.7"/></g></g><g class="st0"><g class="st1"><path d="M50,2.5C23.8,2.5,2.5,23.8,2.5,50c0,26.2,21.3,47.5,47.5,47.5S97.5,76.2,97.5,50C97.5,23.8,76.2,2.5,50,2.5z M50,91.6    C27,91.6,8.4,73,8.4,50S27,8.4,50,8.4S91.6,27,91.6,50S73,91.6,50,91.6z"/><circle cx="33.4" cy="32.6" r="5.7"/><circle cx="66.6" cy="32.6" r="5.7"/><path d="M50,42.6c-9.8,0-17.8,8-17.8,17.8c0,9.8,8,17.8,17.8,17.8s17.8-8,17.8-17.8C67.8,50.6,59.8,42.6,50,42.6z M50,72.3    c-6.6,0-11.9-5.3-11.9-11.9c0-6.6,5.3-11.9,11.9-11.9s11.9,5.3,11.9,11.9C61.9,66.9,56.6,72.3,50,72.3z"/></g></g><g><g><path d="M50,2.5C23.8,2.5,2.5,23.8,2.5,50c0,26.2,21.3,47.5,47.5,47.5S97.5,76.2,97.5,50C97.5,23.8,76.2,2.5,50,2.5z M50,91.6    C27,91.6,8.4,73,8.4,50S27,8.4,50,8.4S91.6,27,91.6,50S73,91.6,50,91.6z"/><circle cx="33.4" cy="36.9" r="5.7"/><circle cx="66.6" cy="36.9" r="5.7"/><path d="M72.3,55.9H27.7c-1.6,0-3,1.3-3,3s1.3,3,3,3h44.6c1.6,0,3-1.3,3-3S73.9,55.9,72.3,55.9z"/></g></g><g class="st0"><g class="st1"><path d="M50,2.5C23.8,2.5,2.5,23.8,2.5,50c0,26.2,21.3,47.5,47.5,47.5S97.5,76.2,97.5,50C97.5,23.8,76.2,2.5,50,2.5z M50,91.6    C27,91.6,8.4,73,8.4,50S27,8.4,50,8.4S91.6,27,91.6,50S73,91.6,50,91.6z"/><path d="M76.6,50c-1.5,0-2.8,1.2-3,2.7c-1.3,11.8-11.4,21-23.6,21s-22.3-9.2-23.6-21c-0.2-1.5-1.4-2.7-3-2.7    c-1.8,0-3.1,1.6-2.9,3.3C22.2,68.2,34.7,79.7,50,79.7s27.8-11.5,29.5-26.3C79.7,51.6,78.3,50,76.6,50z"/><path d="M23.4,40.5c1.2,0,2.4-0.8,2.8-2c0.8-2.3,3-4,5.6-4s4.8,1.7,5.6,4c0.4,1.2,1.5,2,2.8,2c2.1,0,3.5-2.1,2.8-4    c-1.6-4.6-6-7.9-11.2-7.9c-5.1,0-9.5,3.3-11.2,7.9C20,38.4,21.4,40.5,23.4,40.5z"/><path d="M59.8,40.5L59.8,40.5c1.2,0,2.4-0.8,2.8-2c0.8-2.3,3-4,5.6-4c2.6,0,4.8,1.7,5.6,4c0.4,1.2,1.5,2,2.8,2    c2.1,0,3.5-2.1,2.8-4c-1.6-4.6-6-7.9-11.2-7.9c-5.1,0-9.5,3.3-11.2,7.9C56.3,38.4,57.7,40.5,59.8,40.5z"/></g></g><g class="st0"><g class="st1"><path d="M50,2.5C23.8,2.5,2.5,23.8,2.5,50c0,26.2,21.3,47.5,47.5,47.5S97.5,76.2,97.5,50C97.5,23.8,76.2,2.5,50,2.5z M50,91.6    C27,91.6,8.4,73,8.4,50S27,8.4,50,8.4S91.6,27,91.6,50S73,91.6,50,91.6z"/><path d="M26.2,38.5c0.8-2.3,3-4,5.6-4s4.8,1.7,5.6,4c0.4,1.2,1.5,2,2.8,2c2.1,0,3.5-2.1,2.8-4c-1.6-4.6-6-7.9-11.2-7.9    c-5.1,0-9.5,3.3-11.2,7.9c-0.7,2,0.7,4,2.8,4C24.7,40.5,25.8,39.7,26.2,38.5z"/><path d="M79.4,36.5c-1.6-4.6-6-7.9-11.2-7.9c-5.1,0-9.5,3.3-11.2,7.9c-0.7,2,0.7,4,2.8,4c1.2,0,2.4-0.8,2.8-2c0.8-2.3,3-4,5.6-4    s4.8,1.7,5.6,4c0.4,1.2,1.5,2,2.8,2C78.7,40.5,80.1,38.4,79.4,36.5z"/><path d="M72.3,55.9H27.7c-1.6,0-3,1.3-3,3s1.3,3,3,3h20.8v4.6c0,6.6,5.3,11.9,11.9,11.9S72.3,73,72.3,66.5v-4.6h0c1.6,0,3-1.3,3-3    S73.9,55.9,72.3,55.9z M66.4,66.5c0,3.3-2.7,5.9-5.9,5.9s-5.9-2.7-5.9-5.9v-4.6h11.9V66.5z"/></g></g><g class="st0"><g class="st1"><circle cx="33.4" cy="36.9" r="5.7"/><circle cx="66.6" cy="36.9" r="5.7"/><path d="M50,2.5C23.8,2.5,2.5,23.8,2.5,50c0,26.2,21.3,47.5,47.5,47.5S97.5,76.2,97.5,50C97.5,23.8,76.2,2.5,50,2.5z M50,91.6    C27,91.6,8.4,73,8.4,50S27,8.4,50,8.4S91.6,27,91.6,50S73,91.6,50,91.6z"/><path d="M72.3,55.9H27.7c-1.6,0-3,1.3-3,3s1.3,3,3,3h20.8v4.6c0,6.6,5.3,11.9,11.9,11.9S72.3,73,72.3,66.5v-4.6h0c1.6,0,3-1.3,3-3    S73.9,55.9,72.3,55.9z M66.4,66.5c0,3.3-2.7,5.9-5.9,5.9s-5.9-2.7-5.9-5.9v-4.6h11.9V66.5z"/></g></g><g class="st0"><g class="st1"><circle cx="33.4" cy="36.9" r="5.7"/><circle cx="66.6" cy="36.9" r="5.7"/><path d="M50,2.5C23.8,2.5,2.5,23.8,2.5,50c0,26.2,21.3,47.5,47.5,47.5S97.5,76.2,97.5,50C97.5,23.8,76.2,2.5,50,2.5z M50,91.6    C27,91.6,8.4,73,8.4,50S27,8.4,50,8.4S91.6,27,91.6,50S73,91.6,50,91.6z"/><path d="M72.3,55.9H27.7c-1.6,0-3,1.3-3,3s1.3,3,3,3h10.4v4.6c0,6.6,5.3,11.9,11.9,11.9S61.9,73,61.9,66.5v-4.6h10.4    c1.6,0,3-1.3,3-3S73.9,55.9,72.3,55.9z M55.9,66.5c0,3.3-2.7,5.9-5.9,5.9s-5.9-2.7-5.9-5.9v-4.6h11.9V66.5z"/></g></g><g class="st0"><g class="st1"><path d="M50,2.5C23.8,2.5,2.5,23.8,2.5,50c0,26.2,21.3,47.5,47.5,47.5S97.5,76.2,97.5,50C97.5,23.8,76.2,2.5,50,2.5z M50,91.6    C27,91.6,8.4,73,8.4,50S27,8.4,50,8.4S91.6,27,91.6,50S73,91.6,50,91.6z"/><path d="M26.2,38.5c0.8-2.3,3-4,5.6-4s4.8,1.7,5.6,4c0.4,1.2,1.5,2,2.8,2c2.1,0,3.5-2.1,2.8-4c-1.6-4.6-6-7.9-11.2-7.9    c-5.1,0-9.5,3.3-11.2,7.9c-0.7,2,0.7,4,2.8,4C24.7,40.5,25.8,39.7,26.2,38.5z"/><path d="M79.4,36.5c-1.6-4.6-6-7.9-11.2-7.9c-5.1,0-9.5,3.3-11.2,7.9c-0.7,2,0.7,4,2.8,4c1.2,0,2.4-0.8,2.8-2c0.8-2.3,3-4,5.6-4    s4.8,1.7,5.6,4c0.4,1.2,1.5,2,2.8,2C78.7,40.5,80.1,38.4,79.4,36.5z"/><path d="M72.3,55.9H27.7c-1.6,0-3,1.3-3,3s1.3,3,3,3h10.4v4.6c0,6.6,5.3,11.9,11.9,11.9S61.9,73,61.9,66.5v-4.6h10.4    c1.6,0,3-1.3,3-3S73.9,55.9,72.3,55.9z M55.9,66.5c0,3.3-2.7,5.9-5.9,5.9s-5.9-2.7-5.9-5.9v-4.6h11.9V66.5z"/></g></g><g class="st0"><g class="st1"><path d="M50,2.5C23.8,2.5,2.5,23.8,2.5,50c0,26.2,21.3,47.5,47.5,47.5S97.5,76.2,97.5,50C97.5,23.8,76.2,2.5,50,2.5z M50,91.6    C27,91.6,8.4,73,8.4,50S27,8.4,50,8.4S91.6,27,91.6,50S73,91.6,50,91.6z"/><path d="M76.6,52.8L76.6,52.8H23.4l0,0c-1.8,0-3.1,1.6-2.9,3.3C22.2,70.9,34.7,82.5,50,82.5s27.8-11.5,29.5-26.3    C79.7,54.3,78.3,52.8,76.6,52.8z M50,76.5c-11.1,0-20.3-7.6-23-17.8h46C70.3,68.9,61.1,76.5,50,76.5z"/><path d="M28.5,46.7c0.6,0.6,1.3,0.9,2.1,0.9s1.5-0.3,2.1-0.9l8.4-8.4c1.2-1.2,1.2-3,0-4.2l-8.4-8.4c-1.2-1.2-3-1.2-4.2,0    c-1.2,1.2-1.2,3,0,4.2l6.3,6.3l-6.3,6.3C27.4,43.7,27.4,45.5,28.5,46.7z"/><path d="M67.3,46.7c0.6,0.6,1.3,0.9,2.1,0.9s1.5-0.3,2.1-0.9c1.2-1.2,1.2-3,0-4.2l-6.3-6.3l6.3-6.3c1.2-1.2,1.2-3,0-4.2    c-1.2-1.2-3-1.2-4.2,0l-8.4,8.4c-1.2,1.2-1.2,3,0,4.2L67.3,46.7z"/></g></g><g class="st0"><g class="st1"><path d="M50,2.5C23.8,2.5,2.5,23.8,2.5,50c0,26.2,21.3,47.5,47.5,47.5S97.5,76.2,97.5,50C97.5,23.8,76.2,2.5,50,2.5z M50,91.6    C27,91.6,8.4,73,8.4,50S27,8.4,50,8.4S91.6,27,91.6,50S73,91.6,50,91.6z"/><path d="M72.3,55.9H27.7c-1.6,0-3,1.3-3,3s1.3,3,3,3h44.6c1.6,0,3-1.3,3-3S73.9,55.9,72.3,55.9z"/><path d="M30.7,41h11.7c1.6,0,3-1.3,3-3s-1.3-3-3-3H30.7c-1.6,0-3,1.3-3,3S29.1,41,30.7,41z"/><path d="M57.6,41h11.7c1.6,0,3-1.3,3-3s-1.3-3-3-3H57.6c-1.6,0-3,1.3-3,3S55.9,41,57.6,41z"/></g></g><g class="st0"><g class="st1"><path d="M50,2.5C23.8,2.5,2.5,23.8,2.5,50c0,26.2,21.3,47.5,47.5,47.5S97.5,76.2,97.5,50C97.5,23.8,76.2,2.5,50,2.5z M50,91.6    C27,91.6,8.4,73,8.4,50S27,8.4,50,8.4S91.6,27,91.6,50S73,91.6,50,91.6z"/><path d="M76.6,50c-1.5,0-2.8,1.2-3,2.7c-1.3,11.8-11.4,21-23.6,21c-12.2,0-22.3-9.2-23.6-21c-0.2-1.5-1.4-2.7-3-2.7    c-1.8,0-3.1,1.6-2.9,3.3C22.2,68.2,34.7,79.7,50,79.7s27.8-11.5,29.5-26.3C79.7,51.6,78.3,50,76.6,50z"/><circle cx="33.4" cy="36.9" r="5.7"/><path d="M65.4,46.7c0.6,0.6,1.3,0.9,2.1,0.9s1.5-0.3,2.1-0.9c1.2-1.2,1.2-3,0-4.2l-6.3-6.3l6.3-6.3c1.2-1.2,1.2-3,0-4.2    c-1.2-1.2-3-1.2-4.2,0L57,34.1c-1.2,1.2-1.2,3,0,4.2L65.4,46.7z"/></g></g><g class="st0"><g class="st1"><path d="M50,2.5C23.8,2.5,2.5,23.8,2.5,50c0,26.2,21.3,47.5,47.5,47.5S97.5,76.2,97.5,50C97.5,23.8,76.2,2.5,50,2.5z M50,91.6    C27,91.6,8.4,73,8.4,50S27,8.4,50,8.4S91.6,27,91.6,50S73,91.6,50,91.6z"/><circle cx="33.4" cy="36.9" r="5.7"/><circle cx="66.6" cy="36.9" r="5.7"/></g></g><g class="st0"><g class="st1"><path d="M50,2.5C23.8,2.5,2.5,23.8,2.5,50c0,26.2,21.3,47.5,47.5,47.5S97.5,76.2,97.5,50C97.5,23.8,76.2,2.5,50,2.5z M50,91.6    C27,91.6,8.4,73,8.4,50S27,8.4,50,8.4S91.6,27,91.6,50S73,91.6,50,91.6z"/><path d="M79.5,68.9C77.8,54.1,65.3,42.6,50,42.6S22.2,54.1,20.5,68.9c-0.2,1.8,1.2,3.3,2.9,3.3c1.5,0,2.8-1.2,3-2.7    c1.3-11.8,11.4-21,23.6-21c12.2,0,22.3,9.2,23.6,21c0.2,1.5,1.4,2.7,3,2.7C78.3,72.3,79.7,70.7,79.5,68.9z"/><circle cx="33.4" cy="32.6" r="5.7"/><circle cx="66.6" cy="32.6" r="5.7"/><path d="M47.9,31.7c1.2,1.2,3,1.2,4.2,0l8.4-8.4c1.2-1.2,1.2-3,0-4.2c-1.2-1.2-3-1.2-4.2,0L50,25.4l-6.3-6.3c-1.2-1.2-3-1.2-4.2,0    c-0.6,0.6-0.9,1.3-0.9,2.1s0.3,1.5,0.9,2.1L47.9,31.7z"/></g></g><g class="st0"><g class="st1"><path d="M50,2.5C23.8,2.5,2.5,23.8,2.5,50c0,26.2,21.3,47.5,47.5,47.5S97.5,76.2,97.5,50C97.5,23.8,76.2,2.5,50,2.5z M50,91.6    C27,91.6,8.4,73,8.4,50S27,8.4,50,8.4S91.6,27,91.6,50S73,91.6,50,91.6z"/><path d="M79.5,68.9C77.8,54.1,65.3,42.6,50,42.6S22.2,54.1,20.5,68.9c-0.2,1.8,1.2,3.3,2.9,3.3l0,0h53.1l0,0    C78.3,72.3,79.7,70.7,79.5,68.9z M50,48.5c11.1,0,20.3,7.6,23,17.8H27C29.7,56.1,38.9,48.5,50,48.5z"/><circle cx="33.4" cy="32.6" r="5.7"/><circle cx="66.6" cy="32.6" r="5.7"/><path d="M47.9,31.7c1.2,1.2,3,1.2,4.2,0l8.4-8.4c1.2-1.2,1.2-3,0-4.2c-1.2-1.2-3-1.2-4.2,0L50,25.4l-6.3-6.3c-1.2-1.2-3-1.2-4.2,0    c-0.6,0.6-0.9,1.3-0.9,2.1s0.3,1.5,0.9,2.1L47.9,31.7z"/></g></g><text x="0" y="115" fill="#000000" font-size="5px" font-weight="bold" font-family="'Helvetica Neue', Helvetica, Arial-Unicode, Arial, Sans-serif">Created by Ilaria Bernareggi</text><text x="0" y="120" fill="#000000" font-size="5px" font-weight="bold" font-family="'Helvetica Neue', Helvetica, Arial-Unicode, Arial, Sans-serif">from the Noun Project</text></svg>