<svg xmlns="http://www.w3.org/2000/svg" xmlns:xlink="http://www.w3.org/1999/xlink" version="1.1" x="0px" y="0px" viewBox="0 0 100 125" enable-background="new 0 0 100 100" xml:space="preserve"><path fill="#000000" d="M64.91,35.032c-4.618,0-8.375,3.757-8.375,8.375h4c0-2.413,1.963-4.375,4.375-4.375s4.375,1.962,4.375,4.375  h4C73.285,38.789,69.528,35.032,64.91,35.032z"/><path fill="#000000" d="M39.465,43.407h4c0-4.618-3.757-8.375-8.375-8.375s-8.375,3.757-8.375,8.375h4  c0-2.413,1.963-4.375,4.375-4.375S39.465,40.994,39.465,43.407z"/><path fill="#000000" d="M50,9.667C27.761,9.667,9.667,27.76,9.667,50S27.761,90.333,50,90.333S90.333,72.24,90.333,50  S72.239,9.667,50,9.667z M50,86.333c-20.034,0-36.333-16.299-36.333-36.333S29.966,13.667,50,13.667S86.333,29.966,86.333,50  S70.034,86.333,50,86.333z"/><path fill="#000000" d="M64.833,56.333H35.167c-1.104,0-2,0.896-2,2c0,9.282,7.551,16.833,16.833,16.833s16.833-7.551,16.833-16.833  C66.833,57.229,65.938,56.333,64.833,56.333z M50,71.167c-6.396,0-11.714-4.704-12.678-10.833h25.355  C61.714,66.463,56.396,71.167,50,71.167z"/><text x="0" y="115" fill="#000000" font-size="5px" font-weight="bold" font-family="'Helvetica Neue', Helvetica, Arial-Unicode, Arial, Sans-serif">Created by Alina Oleynik</text><text x="0" y="120" fill="#000000" font-size="5px" font-weight="bold" font-family="'Helvetica Neue', Helvetica, Arial-Unicode, Arial, Sans-serif">from the Noun Project</text></svg>