<svg xmlns:dc="http://purl.org/dc/elements/1.1/" xmlns:cc="http://creativecommons.org/ns#" xmlns:rdf="http://www.w3.org/1999/02/22-rdf-syntax-ns#" xmlns:svg="http://www.w3.org/2000/svg" xmlns="http://www.w3.org/2000/svg" xmlns:sodipodi="http://sodipodi.sourceforge.net/DTD/sodipodi-0.dtd" xmlns:inkscape="http://www.inkscape.org/namespaces/inkscape" version="1.1" x="0px" y="0px" viewBox="0 0 100 125"><g transform="translate(0,-952.36218)"><path style="text-indent:0;text-transform:none;direction:ltr;block-progression:tb;baseline-shift:baseline;color:#000000;enable-background:accumulate;" d="m 50.005,958.95716 c -23.9503,0 -43.4100001,19.4491 -43.4100001,43.40004 0,23.9509 19.4591001,43.41 43.4100001,43.41 23.9414,0 43.4,-19.4591 43.4,-43.41 0,-23.95094 -19.4592,-43.40004 -43.4,-43.40004 z m 0,4 c 21.7793,0 39.4,17.6109 39.4,39.40004 0,21.7891 -17.6213,39.41 -39.4,39.41 -21.7891,0 -39.41,-17.6209 -39.41,-39.41 0,-21.78914 17.6203,-39.40004 39.41,-39.40004 z" fill="#000000" fill-opacity="1" fill-rule="evenodd" stroke="none" marker="none" visibility="visible" display="inline" overflow="visible"/><path style="text-indent:0;text-transform:none;direction:ltr;block-progression:tb;baseline-shift:baseline;color:#000000;enable-background:accumulate;" d="m 50.005,1012.6072 c -8.3994,0 -15.5388,5.4842 -18.0115,13.0703 a 2.0002,2.0002 0 1 0 3.8031,1.2397 c 1.9472,-5.9738 7.5478,-10.31 14.2084,-10.31 6.6495,0 12.2512,4.3362 14.1985,10.31 a 2.0002,2.0002 0 1 0 3.8031,-1.2397 c -2.4728,-7.5861 -9.611,-13.0703 -18.0016,-13.0703 z" fill="#000000" fill-opacity="1" fill-rule="evenodd" stroke="none" marker="none" visibility="visible" display="inline" overflow="visible"/><path style="text-indent:0;text-transform:none;direction:ltr;block-progression:tb;baseline-shift:baseline;color:#000000;enable-background:accumulate;" d="m 38.805,987.98716 c -3.618,0 -6.6096,2.8708 -6.8068,6.45 a 2.0002,2.0002 0 1 0 3.994,0.22 c 0.0827,-1.5008 1.2908,-2.67 2.8128,-2.67 1.522,0 2.7304,1.1692 2.8132,2.67 a 2.0002,2.0002 0 1 0 3.994,-0.22 c -0.1973,-3.5792 -3.1892,-6.45 -6.8072,-6.45 z" fill="#000000" fill-opacity="1" fill-rule="evenodd" stroke="none" marker="none" visibility="visible" display="inline" overflow="visible"/><path style="text-indent:0;text-transform:none;direction:ltr;block-progression:tb;baseline-shift:baseline;color:#000000;enable-background:accumulate;" d="m 61.195,987.98716 c -3.618,0 -6.6096,2.8708 -6.8068,6.45 a 2.0002,2.0002 0 1 0 3.994,0.22 c 0.0827,-1.5008 1.2908,-2.67 2.8128,-2.67 1.522,0 2.7407,1.1744 2.8232,2.67 a 2.0002,2.0002 0 1 0 3.994,-0.22 c -0.1975,-3.5844 -3.1992,-6.45 -6.8172,-6.45 z" fill="#000000" fill-opacity="1" fill-rule="evenodd" stroke="none" marker="none" visibility="visible" display="inline" overflow="visible"/><path style="text-indent:0;text-transform:none;direction:ltr;block-progression:tb;baseline-shift:baseline;color:#000000;enable-background:accumulate;" d="m 28.9778,1002.88 c -0.3114,1.2132 -0.6825,1.4784 -1.3403,2.0229 -0.3289,0.2722 -0.7646,0.5744 -1.2259,1.1378 -0.4613,0.5633 -0.8566,1.4825 -0.8566,2.3965 0,2.2547 1.7574,4.28 4.09,4.28 1.3802,0 2.7561,-0.8031 3.396,-1.8415 0.6398,-1.0384 0.7657,-2.1155 0.7728,-3.1319 0.0142,-2.0329 -0.5018,-3.9153 -1.0753,-5.1881 -0.7586,-1.6901 -3.2155,-1.4358 -3.7607,0.3243 z" fill="#000000" fill-opacity="1" fill-rule="evenodd" stroke="none" marker="none" visibility="visible" display="inline" overflow="visible"/></g><text x="0" y="115" fill="#000000" font-size="5px" font-weight="bold" font-family="'Helvetica Neue', Helvetica, Arial-Unicode, Arial, Sans-serif">Created by xander</text><text x="0" y="120" fill="#000000" font-size="5px" font-weight="bold" font-family="'Helvetica Neue', Helvetica, Arial-Unicode, Arial, Sans-serif">from the Noun Project</text></svg>