<svg xmlns="http://www.w3.org/2000/svg" xmlns:xlink="http://www.w3.org/1999/xlink" xmlns:serif="http://www.serif.com/" viewBox="0 0 32 40" version="1.1" xml:space="preserve" style="" x="0px" y="0px" fill-rule="evenodd" clip-rule="evenodd" stroke-linejoin="round" stroke-miterlimit="2"><g transform="matrix(1,0,0,1,-37,0)"><path d="M53,1C44.721,1 38,7.721 38,16C38,24.279 44.721,31 53,31C61.279,31 68,24.279 68,16C68,7.721 61.279,1 53,1ZM53,3C60.175,3 66,8.825 66,16C66,23.175 60.175,29 53,29C45.825,29 40,23.175 40,16C40,8.825 45.825,3 53,3ZM61.803,22.381C59.796,19.706 56.599,17.975 53,17.975C49.409,17.975 46.217,19.699 44.209,22.365C43.877,22.806 43.965,23.433 44.406,23.765C44.847,24.097 45.474,24.009 45.806,23.568C47.45,21.387 50.061,19.975 53,19.975C55.945,19.975 58.561,21.392 60.203,23.581C60.535,24.023 61.162,24.112 61.604,23.781C62.045,23.45 62.134,22.822 61.803,22.381ZM47.5,9C48.88,9 50,10.12 50,11.5C50,12.88 48.88,14 47.5,14C46.12,14 45,12.88 45,11.5C45,10.12 46.12,9 47.5,9ZM58.5,9C59.88,9 61,10.12 61,11.5C61,12.88 59.88,14 58.5,14C57.12,14 56,12.88 56,11.5C56,10.12 57.12,9 58.5,9Z"/></g><text x="0" y="47" fill="#000000" font-size="5px" font-weight="bold" font-family="'Helvetica Neue', Helvetica, Arial-Unicode, Arial, Sans-serif">Created by Utari Nuraeni</text><text x="0" y="52" fill="#000000" font-size="5px" font-weight="bold" font-family="'Helvetica Neue', Helvetica, Arial-Unicode, Arial, Sans-serif">from the Noun Project</text></svg>