<svg xmlns="http://www.w3.org/2000/svg" xmlns:xlink="http://www.w3.org/1999/xlink" version="1.1" x="0px" y="0px" viewBox="0 0 512 640" style="enable-background:new 0 0 512 512;" xml:space="preserve"><style type="text/css">
	.st0{fill:none;}
</style><g><path class="st0" d="M345.56,121.44l-45.52,39.89l-11.71-14.23c-2.67-3.11-7.27-3.56-10.53-1.04c-3.11,2.67-3.56,7.27-0.89,10.53   l16.61,20.17c1.19,1.48,3.11,2.52,5.04,2.67c0.3,0,0.45,0,0.59,0c1.93,0,3.56-0.74,4.89-1.93l51.3-44.93   c3.11-2.67,3.41-7.41,0.74-10.38C353.27,119.07,348.67,118.77,345.56,121.44z"/><path d="M421.62,198.99c-0.59-35.88-1.04-71.76-1.78-107.8c0-1.78-0.44-3.71-1.33-5.49c-0.89-1.63-2.08-3.26-3.41-4.45   c-19.42-17.2-42.41-22.39-66.28-14.98c-10.23,3.26-20.02,7.56-29.51,11.71l-8.3,3.56c-5.04,2.22-10.08,4.45-14.98,6.82   c-8.01,3.56-16.16,7.41-24.17,10.38c-18.09,6.67-34.1,5.49-48.93-3.71c-2.08-1.19-4.6-1.04-6.67-0.3c-2.22,0.89-3.86,2.97-4.6,5.19   c-0.15,0.74-0.45,2.08-0.45,2.82v119.66c0,2.37,1.19,4.74,3.26,6.08c11.56,8.01,24.17,12.01,37.22,12.01   c6.38,0,12.75-0.89,19.28-2.82c11.27-3.41,22.09-8.01,32.62-12.6l2.08-0.89c5.93-2.52,11.86-5.19,17.64-8.01   c8.3-3.86,17.05-7.86,25.65-11.12c17.64-6.82,33.36-5.93,48.04,2.67c2.97,1.78,5.63,3.86,8.6,5.93l4.3,3.11   c2.22,1.48,5.04,1.33,7.41,0.3c2.52-1.19,4.15-3.86,4.3-6.52c0-0.15,0.15-1.63,0.15-1.93L421.62,198.99z M355.34,132.56   l-51.3,44.93c-1.33,1.19-2.97,1.93-4.89,1.93c-0.15,0-0.3,0-0.59,0c-1.93-0.15-3.86-1.19-5.04-2.67l-16.61-20.17   c-2.67-3.26-2.22-7.86,0.89-10.53c3.26-2.52,7.86-2.08,10.53,1.04l11.71,14.23l45.52-39.89c3.11-2.67,7.71-2.37,10.53,0.74   C358.75,125.15,358.46,129.89,355.34,132.56z"/><path d="M154.28,393.97c0,4.15,3.26,7.41,7.41,7.41h26.24c4.15,0,7.41-3.26,7.41-7.41V81.85c4.3-4.89,6.67-11.42,6.67-18.24   c0-15.72-12.75-28.47-28.32-28.47c-15.72,0-28.47,12.75-28.47,28.47c0,8.01,3.26,15.42,9.04,20.91V393.97z"/><path d="M210.48,365.2c-4.15-0.89-8.01,1.78-8.75,5.78c-0.89,4,1.78,7.86,5.78,8.75c21.95,4.45,33.81,12.6,33.81,17.94   c0,8.6-27.28,21.35-68.21,21.35c-40.92,0-68.06-12.75-68.06-21.35c0-4.89,11.27-13.79,36.33-18.53c4-0.74,6.67-4.6,5.93-8.6   s-4.6-6.67-8.6-5.93c-27.43,5.19-44.78,15.72-47.75,28.91c-0.44,0.89-0.74,1.93-0.74,2.97v44.33c0,23.72,41.81,36.03,82.89,36.03   c41.22,0,83.03-12.31,83.03-36.03v-44.33c0-1.04-0.3-2.08-0.59-2.97C252.59,380.77,236.72,370.54,210.48,365.2z"/></g><text x="0" y="527" fill="#000000" font-size="5px" font-weight="bold" font-family="'Helvetica Neue', Helvetica, Arial-Unicode, Arial, Sans-serif">Created by Adeel rehman</text><text x="0" y="532" fill="#000000" font-size="5px" font-weight="bold" font-family="'Helvetica Neue', Helvetica, Arial-Unicode, Arial, Sans-serif">from the Noun Project</text></svg>