<svg xmlns="http://www.w3.org/2000/svg" xmlns:xlink="http://www.w3.org/1999/xlink" version="1.1" x="0px" y="0px" viewBox="0 0 400 620" style="enable-background:new 0 0 400 496;" xml:space="preserve"><g><path d="M368,373.578V272.863c0-14.301-6.176-27.186-16-36.13v-40.986l9.835-8.196C386.089,167.339,400,137.639,400,106.067   C400,47.582,352.418,0,293.933,0H216c-30.878,0-56,25.122-56,56c0,28.162,20.899,51.525,48,55.419v49.314   C208,195.619,236.381,224,271.267,224c5.702,0,11.319-0.769,16.733-2.253v13.517c-4.218,3.48-7.887,7.664-10.764,12.459   l-7.215,12.025l-76.285,34.675l-47.394-47.393c-4.533-4.533-10.56-7.03-16.971-7.03H85.947C73.846,240,64,249.846,64,261.947   c0,9.461,6.031,17.829,15.007,20.821l36.222,12.074l52.334,65.418l-68.682,20.2C87.764,383.731,80,394.108,80,405.696   c0,7.71,3.333,14.655,8.635,19.47C83.066,432.72,80,441.903,80,451.522C80,476.047,99.953,496,124.478,496h183.975   C350.109,496,384,462.109,384,420.452c0-14.964-4.388-29.455-12.688-41.906L368,373.578z M176,56c0-22.056,17.944-40,40-40h77.933   C343.596,16,384,56.404,384,106.068c0,26.809-11.812,52.028-32.408,69.191l-6.663,5.552c-5.424-7.419-8.521-16.232-8.891-25.536   l6.991-6.992c5.785-5.785,8.971-13.476,8.971-21.657C352,109.739,338.261,96,321.373,96h-4.818c-6.831-9.98-18.089-16-30.443-16   h-30.916c0.527-2.586,0.805-5.261,0.805-8c0-13.233-10.766-24-24-24s-24,10.767-24,24v8h16v-8c0-4.411,3.589-8,8-8s8,3.589,8,8   c0,13.233-10.766,24-24,24C193.944,96,176,78.056,176,56z M304,214.867c0.795-0.481,1.584-0.975,2.36-1.493l10.077-6.717   l-8.875-13.313l-10.078,6.718c-7.789,5.193-16.855,7.938-26.218,7.938C245.204,208,224,186.796,224,160.733v-49.538   c9.741-1.985,18.205-7.523,23.978-15.195h38.133c7.984,0,15.163,4.437,18.733,11.578l2.211,4.422h14.317   c8.065,0,14.627,6.562,14.627,14.627c0,3.907-1.521,7.581-4.284,10.343L320,148.687v4.686c0,15.586,5.66,30.299,16,41.804v31.825   c-5.259-1.94-10.939-3.001-16.863-3.001c-5.2,0-10.302,0.854-15.137,2.442V214.867z M290.956,255.956   C296.861,246.114,307.66,240,319.137,240C337.258,240,352,254.742,352,272.863v97.646c-24.086,8.953-49.316,13.49-75.081,13.49H272   l62.4-83.2l-12.8-9.6l-28.163,37.55l-34.373-19.642L290.956,255.956z M237.729,313.569l-8.787-17.573l26.58-12.082L237.729,313.569   z M124.771,281.158l-40.705-13.568c-2.432-0.811-4.066-3.078-4.066-5.642c0-3.279,2.668-5.947,5.947-5.947h43.425   c2.137,0,4.146,0.832,5.657,2.343l55.233,55.234l24.104-10.956l13.605,27.21l-9.225,15.375l-34.596,10.175L124.771,281.158z    M103.396,395.81l125.857-37.016l21.577-35.962l32.932,18.818l-26.331,35.107c-3.788,5.05-9.311,8.36-15.55,9.321l-93.687,14.413   l-12.49,12.491c-1.946,1.946-4.534,3.018-7.287,3.018h-22.114C100.623,416,96,411.377,96,405.696   C96,401.156,99.042,397.091,103.396,395.81z M308.452,480H124.478C108.775,480,96,467.225,96,451.522   c0-7.386,2.824-14.372,7.848-19.636c0.808,0.075,1.628,0.114,2.456,0.114h22.114c7.026,0,13.632-2.736,18.6-7.705l8.787-8.787   l88.51-13.617c2.572-0.396,5.069-1.032,7.469-1.892h25.136c27.434,0,54.302-4.796,79.969-14.246l1.111,1.667   c6.542,9.814,10.001,21.236,10.001,33.032C368,453.287,341.287,480,308.452,480z"/><path d="M48.18,211.16C29.233,205.747,16,188.203,16,168.498c0-4.778,0.766-9.498,2.277-14.03l2-6.001l12.232,8.154   c2.119,16.602,10.908,31.943,24.428,42.082L67.2,206.4l9.601-12.8l-10.263-7.697C54.93,177.197,48,163.338,48,148.829   c0-7.157,1.692-14.323,4.893-20.725l6.21-12.42l7.985,5.323C65.05,128.944,64,137.095,64,145.373   c0,16.729,6.514,32.456,18.343,44.284L88,195.313l5.657-5.657C105.486,177.828,112,162.101,112,145.373   c0-8.277-1.05-16.429-3.087-24.366l7.985-5.323l6.21,12.42c3.201,6.402,4.893,13.568,4.893,20.725   c0,14.509-6.93,28.369-18.538,37.074L99.2,193.6l9.601,12.8l10.262-7.697c13.52-10.139,22.31-25.48,24.428-42.082l12.232-8.154   l2,6.002C159.234,159,160,163.72,160,168.499c0,19.705-13.233,37.248-32.18,42.661l-18.018,5.148l4.396,15.385l18.018-5.148   C157.995,219.179,176,195.309,176,168.498c0-6.501-1.042-12.924-3.098-19.09l-8.625-25.875l-21.29,14.194   c-1.057-5.82-2.926-11.494-5.569-16.779l-14.315-28.631l-19.547,13.031L88,66.459l-15.555,38.89L52.897,92.317l-14.315,28.631   c-2.643,5.285-4.512,10.959-5.569,16.779l-21.29-14.194l-8.625,25.874C1.042,155.574,0,161.997,0,168.499   c0,26.811,18.005,50.68,43.784,58.046l18.018,5.148l4.396-15.385L48.18,211.16z M88,109.541l2.12,5.3   c3.901,9.754,5.88,20.026,5.88,30.531c0,9.458-2.797,18.487-8,26.14c-5.203-7.653-8-16.682-8-26.14   c0-10.505,1.979-20.777,5.88-30.531L88,109.541z"/></g><text x="0" y="511" fill="#000000" font-size="5px" font-weight="bold" font-family="'Helvetica Neue', Helvetica, Arial-Unicode, Arial, Sans-serif">Created by Eucalyp</text><text x="0" y="516" fill="#000000" font-size="5px" font-weight="bold" font-family="'Helvetica Neue', Helvetica, Arial-Unicode, Arial, Sans-serif">from the Noun Project</text></svg>