<svg xmlns="http://www.w3.org/2000/svg" xmlns:xlink="http://www.w3.org/1999/xlink" version="1.0" x="0px" y="0px" viewBox="0 0 100 125" enable-background="new 0 0 100 100" xml:space="preserve"><path d="M43.7715149,40.2832108c-4.1337814,2.5205612-2.4993286,7.7624435-2.4993286,7.7624435  c0.1575966-0.3223381,3.8914909-7.8758049,11.5441933-5.6355247C52.8163795,42.4101295,47.9054565,37.7633057,43.7715149,40.2832108  z"/><path d="M42.8597794,38.7638397c1.7298241-0.8806,1.2344017-3.0262489,1.2344017-3.0262489l-4.1338196,2.4811325  C40.6466064,38.7313118,41.7721252,39.3198051,42.8597794,38.7638397z"/><path d="M21.4375992,89h4.9245567c1.0619392-5,3.7582512-17.5074387,9.5128479-27.4125748l-4.1837234-2.3993759  C25.2064056,70.3542862,22.4252377,84,21.4375992,89z"/><path d="M60.1650963,46.3911171c3.086544-6.5532608,2.8357544-15.1709461-1.3608665-22.7967033  c-0.2139091-0.3873978-0.440918-0.783474-0.6747475-1.1616745l3.2347374-1.3490639l-1.9358063-2.5109825  c-5.3971825-6.9860048-12.6287613-10.835659-20.3631935-10.835659c-3.9673538,0-7.852644,1.0018616-11.5473137,2.9786177  c-9.5839882,5.1291809-15.5915537,19.4480171-8.5872307,33.6375465l0.9594631,1.9452972l-3.4800644,1.2422485  c1.2542419,3.5112381,3.4779682,6.4552841,6.4347229,8.5122108c0.4893837,0.3417282,0.5196552,0.5809059,0.5301704,0.6719246  c0.075861,0.6088638-0.5104542,1.7199936-0.9951973,2.2785835C11.0462427,72.3846817,6.8911872,84,5.3868928,89h5.0351653  c1.6117821-5,5.6396351-15.050293,15.6098728-26.8217812c0.2574844-0.2894821,2.5069656-2.9404297,2.1495495-5.9827805  c-0.1333637-1.1385384-0.687767-2.7868462-2.5720673-4.0978928c-2.1122551-1.4704094-3.6511326-3.5055542-4.5814743-6.0293999  l1.2080364-0.6456184c0.5145607-0.2737083,1.008461,0.0512466,1.4930801-0.2316666  C28.3645821,52.6464119,36.1241112,58,43.8684883,58c0.0015182,0,0.0015182,0,0.0015182,0  c3.1038361,0,6.0213661-1.3471527,8.6707306-2.8063889c1.9277573-1.0626373,3.5821304-2.6926765,4.9551964-4.3214645  C62.715065,52.7713585,80.7916946,61,89.8876495,89h5.072998C85.856636,59,67.3952789,49.239933,60.1650963,46.3911171z   M29.8022976,14.9809999c2.9840679-1.5972424,6.1015415-2.4068708,9.2629223-2.4068708  c5.2698555,0,10.3034172,2.2964668,14.4327202,6.5302601c-0.8360367,0.3410683-1.6800842,0.6643944-2.5307465,0.9558487  c-1.9014664,0.6039352-4.1099968,1.0997658-6.2761421,1.1004238c-0.8035088,0-1.5578537-0.0749168-2.2695198-0.211607  c-0.7614517-0.1642914-1.5061455-0.4087582-2.239994-0.7278118c-0.5146446-0.2484093-0.9975357-0.5398617-1.4389458-0.8858604  l-3.5325546-2.7676544l-0.3710556,4.4726715c-0.0068588,0.076561-0.4668732,5.0131931-3.5135784,10.090786  c-1.5157127,2.3375416-3.688961,4.8268871-6.8108292,7.148653c-0.3562241,0.2323074-0.720787,0.4593582-1.101738,0.6758957  l-1.2285309,0.6988945C18.4191952,29.2234325,22.7495918,18.7560902,29.8022976,14.9809999z M50.2064438,50.3483658  c-1.9268532,1.0609932-4.0581245,1.5988846-6.3364372,1.5988846c-6.1288567-0.0009842-12.3439617-3.8976517-16.0990906-10.0171814  c3.6860447-2.5468483,6.2366295-5.7091331,8.0009537-8.7823677c1.8954315-3.0975533,2.8665199-5.9765987,3.3614883-8.1071301  c0.8651199,0.3279247,1.7823982,0.5684471,2.7443275,0.7264957c0.093605,0.017416,0.1876602,0.0325298,0.2815933,0.0483017  c0.0218086,0.0032864,0.0439491,0.0055866,0.0657997,0.008873c0.8971558,0.1475334,1.8069992,0.2300072,2.73106,0.2300072  c2.636219,0,5.1081085-0.5792923,7.419529-1.3593483c0.4006233-0.1265049,0.8034248-0.2595806,1.2102127-0.4048138  c0.3544579,0.5309906,0.6801643,1.0649376,0.9784775,1.6087418C59.6980171,35.2253304,57.7440147,46.1940918,50.2064438,50.3483658z  "/><path d="M64.2983856,65.2954865l-3.0839996,3.7605667C61.2930412,69.1221008,68.5231781,75,72.6175766,89h5.0411987  C73.2310791,73,64.6787186,65.6105957,64.2983856,65.2954865z"/><text x="0" y="115" fill="#000000" font-size="5px" font-weight="bold" font-family="'Helvetica Neue', Helvetica, Arial-Unicode, Arial, Sans-serif">Created by Alex Tai</text><text x="0" y="120" fill="#000000" font-size="5px" font-weight="bold" font-family="'Helvetica Neue', Helvetica, Arial-Unicode, Arial, Sans-serif">from the Noun Project</text></svg>