<svg xmlns="http://www.w3.org/2000/svg" xmlns:xlink="http://www.w3.org/1999/xlink" version="1.1" x="0px" y="0px" viewBox="0 0 400 620" style="enable-background:new 0 0 400 496;" xml:space="preserve"><path d="M365.784,386.055C367.202,382.994,368,379.589,368,376c0-10.429-6.689-19.321-16-22.624v-1.439  c0-48.397-12.249-96.436-35.424-138.922c-5.862-10.747-14.35-19.708-24.486-26.184c20.715-7.609,38.117-23.191,47.654-43.854  l31.567-68.396l-27.942-6.986c-8.441-2.11-17.104-3.296-25.799-3.543c-2.672-15.167-7.506-29.813-14.415-43.63l-2.969-5.938  l-6.384,1.824c-19.396,5.542-37.676,15.062-53.388,27.728l-21.369-33.581C214.879,3.909,207.76,0,200,0s-14.879,3.909-19.044,10.455  l-21.37,33.581c-15.713-12.666-33.993-22.187-53.389-27.728l-6.384-1.824l-2.969,5.938c-6.909,13.817-11.743,28.463-14.415,43.63  c-8.695,0.247-17.358,1.433-25.799,3.543l-27.942,6.986l31.567,68.396c9.537,20.663,26.939,36.245,47.654,43.854  c-10.136,6.476-18.624,15.437-24.486,26.183C60.249,255.502,48,303.541,48,351.938v1.439c-9.311,3.303-16,12.195-16,22.624  c0,3.589,0.797,6.994,2.216,10.055C13.669,395.101,0,415.508,0,438.583C0,470.243,25.757,496,57.417,496h285.166  c31.66,0,57.417-25.757,57.417-57.417C400,415.508,386.331,395.101,365.784,386.055z M176,249.941  C176,235.637,187.638,224,201.941,224c6.93,0,13.443,2.698,18.343,7.598L232,243.314l11.716-11.716  c4.899-4.899,11.413-7.598,18.343-7.598C276.362,224,288,235.637,288,249.941c0,2.068-0.246,4.097-0.713,6.059h-52.231l-4.422,8.845  l-24-32L195.056,256h-18.343C176.246,254.038,176,252.009,176,249.941z M204.944,272l4.422-8.845l24,32L244.944,272h31.741  L232,316.686L187.314,272H204.944z M274.848,296.466C283.467,314.8,288,334.907,288,355.225V368h-16v-68.686L274.848,296.466z   M312,368h32c4.411,0,8,3.589,8,8s-3.589,8-8,8h-32c-4.411,0-8-3.589-8-8S307.589,368,312,368z M348.688,85.418l-23.472,50.855  C314.078,160.406,289.707,176,263.127,176c-5.285,0-10.581-0.641-15.74-1.861C262.457,160.932,272,141.565,272,120  c0-9.885-1.618-19.622-4.737-28.875C281.781,83.832,297.859,80,314.158,80c8.531,0,17.054,1.049,25.33,3.118L348.688,85.418z   M291.736,33.718c4.397,9.936,7.619,20.308,9.665,30.972c-14.1,1.505-27.85,5.489-40.581,11.776  c-0.932-1.695-1.912-3.368-2.956-5.008l-8.802-13.832C261.68,47.168,276.23,39.015,291.736,33.718z M194.455,19.044  C195.667,17.138,197.74,16,200,16s4.333,1.138,5.546,3.044l38.82,61.002C251.977,92.008,256,105.823,256,120  c0,30.878-25.121,56-56,56s-56-25.122-56-56c0-14.177,4.023-27.992,11.634-39.953L194.455,19.044z M108.264,33.718  c15.506,5.297,30.056,13.45,42.674,23.907l-8.802,13.832c-1.044,1.64-2.024,3.313-2.956,5.008  c-12.731-6.286-26.481-10.271-40.581-11.776C100.645,54.025,103.867,43.654,108.264,33.718z M74.783,136.273L51.312,85.418l9.2-2.3  C68.788,81.049,77.311,80,85.842,80c16.299,0,32.377,3.832,46.895,11.125C129.618,100.378,128,110.115,128,120  c0,21.565,9.543,40.932,24.613,54.139c-5.158,1.22-10.455,1.861-15.74,1.861C110.293,176,85.922,160.406,74.783,136.273z   M97.471,220.677c7.536-13.816,20.628-23.875,35.92-27.596l4.503-1.096c10.9-0.135,21.817-2.424,31.866-6.668  C178.961,189.595,189.202,192,200,192s21.039-2.405,30.241-6.682c10.049,4.244,20.966,6.533,31.866,6.668l4.502,1.095  c15.292,3.722,28.384,13.78,35.92,27.597C324.426,260.82,336,306.209,336,351.938V352h-24c-2.816,0-5.518,0.492-8.03,1.386  c-0.288-23.959-6.192-47.603-17.174-68.868l4.92-4.92c7.922-7.922,12.284-18.454,12.284-29.657C304,226.814,285.186,208,262.059,208  c-11.203,0-21.735,4.363-29.657,12.284L232,220.686l-0.401-0.402C223.677,212.363,213.145,208,201.941,208  C178.814,208,160,226.814,160,249.941c0,11.203,4.362,21.735,12.284,29.657L232,339.314l24-24V368H144V240h-16v21.242  c-20.279,26.344-31.577,58.885-31.98,92.141C93.51,352.49,90.812,352,88,352H64v-0.063C64,306.209,75.574,260.82,97.471,220.677z   M128,368h-16v-12.775c0-22.503,5.581-44.694,16-64.461V368z M56,368h32c4.411,0,8,3.589,8,8s-3.589,8-8,8H56c-4.411,0-8-3.589-8-8  S51.589,368,56,368z M208,432v48h-32v-48H208z M240,448v16c0,8.822-7.178,16-16,16v-48C232.822,432,240,439.178,240,448z   M342.583,480h-90.888c2.732-4.711,4.305-10.173,4.305-16v-16c0-5.827-1.573-11.289-4.305-16h72.992  c5.159,0,10.009,2.009,13.656,5.657l11.314-11.313c-6.67-6.67-15.537-10.343-24.971-10.343H75.313  c-9.434,0-18.301,3.673-24.971,10.343l11.314,11.313c3.647-3.648,8.497-5.657,13.656-5.657H160v48H57.417  C34.58,480,16,461.42,16,438.583c0-19.04,12.9-35.563,31.373-40.181l0.02-0.005C50.067,399.429,52.967,400,56,400h32  c10.429,0,19.321-6.689,22.624-16h178.752c3.303,9.311,12.195,16,22.624,16h32c3.033,0,5.933-0.571,8.606-1.602l0.022,0.005  C371.1,403.021,384,419.543,384,438.583C384,461.42,365.42,480,342.583,480z"/><text x="0" y="511" fill="#000000" font-size="5px" font-weight="bold" font-family="'Helvetica Neue', Helvetica, Arial-Unicode, Arial, Sans-serif">Created by Eucalyp</text><text x="0" y="516" fill="#000000" font-size="5px" font-weight="bold" font-family="'Helvetica Neue', Helvetica, Arial-Unicode, Arial, Sans-serif">from the Noun Project</text></svg>