<svg xmlns="http://www.w3.org/2000/svg" data-name="Layer 53" viewBox="0 0 100 125" x="0px" y="0px"><polygon points="70.75 24.04 70.75 15.96 69.25 16.63 69.25 23.37 70.75 24.04"/><path d="M70.75,31.5h-1.5V42.17a5.18,5.18,0,0,1,1.5.79Z"/><path d="M29.25,31.5v7.18a14.17,14.17,0,0,1,1.5-.9V31.5Z"/><polygon points="29.25 15.95 29.25 24.05 30.75 23.37 30.75 16.63 29.25 15.95"/><path d="M51.42,34.68V26L50,25.31l-.08,0v9.34a7.77,7.77,0,0,1,.85,0C51,34.64,51.2,34.66,51.42,34.68Z"/><path d="M75.42,27.79,58.13,20l17.29-7.79A1.16,1.16,0,0,0,75,10H64.32a1.15,1.15,0,0,0-.48.1L50,16.33,36.16,10.1a1.15,1.15,0,0,0-.48-.1H25.06a1.16,1.16,0,0,0-.48,2.21L41.88,20l-17.3,7.79A1.16,1.16,0,0,0,25.06,30H35.68a1.15,1.15,0,0,0,.48-.1L50,23.67,63.84,29.9a1.15,1.15,0,0,0,.48.1H75A1.16,1.16,0,0,0,75.42,27.79Z"/><path d="M63.28,48.88h.31c3.33.15,4.3,0,5.31,3.9s2.47,5,3.72,5a2.23,2.23,0,0,0,1.84-1.14c1.07-1.74-1.08-9.3-4.43-12.4-1-.95-3.2-1.26-5.61-1.26a47.26,47.26,0,0,0-5.85.44,7.86,7.86,0,1,1-15.12-3.83,18.55,18.55,0,0,0-7.39-1.83c-5.71,0-12.41,7-11.06,10.35a2.3,2.3,0,0,0,2.08,1.69c.91,0,2-.62,3.09-1.94,1.9-2.29,4-4.16,5.89-4.16a2.54,2.54,0,0,1,.78.12c6.2,1.85,5.95,6.8,5.95,6.8s.25,9,.34,9.63c0,0-8.37,8.53-8.37,11.31s2,15.18,5.4,17.17a3.49,3.49,0,0,0,1.75.52c1.64,0,2.76-1.56,2.49-4-.37-3.18-3.69-10.69-2.63-13.06s6.48-6.13,8.28-6.13a.67.67,0,0,1,.33.07c1.32.66,8.28,6.69,8.42,7.88s-.14,3-1.67,9.65C56.05,88.43,57.6,90,59.3,90a3.47,3.47,0,0,0,2-.7c2-1.46,4.38-16.35,4-17.81S58,62.75,58,62.75c-.47-2.2-.08-11.77-.08-11.77A8.38,8.38,0,0,1,63.28,48.88Z"/><circle cx="50.77" cy="42.51" r="6.37" transform="translate(-8.41 12.8) rotate(-13.28)"/><text x="0" y="115" fill="#000000" font-size="5px" font-weight="bold" font-family="'Helvetica Neue', Helvetica, Arial-Unicode, Arial, Sans-serif">Created by Lars Meiertoberens</text><text x="0" y="120" fill="#000000" font-size="5px" font-weight="bold" font-family="'Helvetica Neue', Helvetica, Arial-Unicode, Arial, Sans-serif">from the Noun Project</text></svg>