<svg xmlns="http://www.w3.org/2000/svg" xmlns:xlink="http://www.w3.org/1999/xlink" version="1.1" x="0px" y="0px" viewBox="0 0 100 125" enable-background="new 0 0 100 100" xml:space="preserve"><g><g><path d="M50,53.127l-0.787-0.526c-1.068-0.712-26.189-17.646-26.189-33.837c0-7.829,6.369-14.198,14.199-14.198    c5.633,0,10.48,3.188,12.777,6.887c2.299-3.699,7.146-6.887,12.777-6.887c7.832,0,14.199,6.369,14.199,14.198    c0,16.191-25.119,33.125-26.189,33.837L50,53.127z M37.223,7.404c-6.264,0-11.361,5.097-11.361,11.359    c0,13.188,19.896,27.935,24.139,30.928c4.242-2.994,24.139-17.75,24.139-30.928c0-6.263-5.096-11.359-11.361-11.359    c-6.48,0-11.357,5.168-11.357,8.52h-2.84C48.58,12.572,43.701,7.404,37.223,7.404z"/></g><g><path d="M61.359,67.038c-3.65,0-7.1-3.451-7.1-7.101c0-5.908,8.064-12.777,18.459-12.777h1.42v1.42    C74.139,58.975,67.268,67.038,61.359,67.038z"/></g><g><path d="M38.643,81.236c-5.91,0-12.781-8.064-12.781-18.459v-1.42h1.42c10.398,0,18.459,6.87,18.459,12.778    C45.74,77.785,42.291,81.236,38.643,81.236z"/></g><g><rect x="48.58" y="37.222" width="2.84" height="56.793"/></g><g><path d="M51.42,75.556h-2.84c0-4.791,3.123-7.969,3.256-8.103l11.357-11.357l2.01,2.008L53.844,69.461    C53.824,69.481,51.42,71.97,51.42,75.556z"/></g><g><path d="M51.42,89.755h-2.84c0-3.63-2.398-6.07-2.424-6.095L34.797,72.302l2.01-2.009l11.357,11.359    C48.297,81.785,51.42,84.962,51.42,89.755z"/></g><g><rect x="10.244" y="92.595" width="79.512" height="2.84"/></g></g><text x="0" y="115" fill="#000000" font-size="5px" font-weight="bold" font-family="'Helvetica Neue', Helvetica, Arial-Unicode, Arial, Sans-serif">Created by boggu</text><text x="0" y="120" fill="#000000" font-size="5px" font-weight="bold" font-family="'Helvetica Neue', Helvetica, Arial-Unicode, Arial, Sans-serif">from the Noun Project</text></svg>