<svg xmlns="http://www.w3.org/2000/svg" xmlns:xlink="http://www.w3.org/1999/xlink" version="1.1" x="0px" y="0px" viewBox="0 0 512 640" style="enable-background:new 0 0 512 512;" xml:space="preserve"><style type="text/css">
	.st0{fill-rule:evenodd;clip-rule:evenodd;}
</style><g><path d="M355.6,250.88c30.42,0,55.08-24.63,55.08-55.05c0-10.57-4.9-18.94-15.73-18.94c-6.49,0-10.77,2.86-16.53,6.58   c-6.69,4.34-13.92,9.01-22.82,9.01c-13.75,0-23.61-11.2-32.4-14.37c-8.48-3.03-17.89-0.65-21.29,8.76   c-0.88,2.44-1.36,5.41-1.36,8.96C300.55,226.25,325.18,250.88,355.6,250.88L355.6,250.88z M229.83,389.7   c-3.83-3.57,1.59-9.41,5.44-5.84l19.84,18.43l30.93-35.43c3.43-3.94,9.44,1.3,5.98,5.24l-33.48,38.38   c-1.56,1.87-4.17,2.01-5.84,0.45L229.83,389.7z M355.6,67.71c7.6,0,14.37,3.94,18.23,10.12c15-3.4,29.96-3.23,42.24,8.67   c6.55,6.35,16.41-3.63,9.75-10.06c-26.42-25.68-61.82-16.41-93.03-6.29c-11.71,3.8-24.94,8.11-37.62,8.02   c-0.79,8.16-4.42,15.48-9.89,20.98c15.87,1.67,32.8-3.46,48.87-8.73C333.46,78.08,343.27,67.71,355.6,67.71L355.6,67.71z    M376.75,85.4c1.87,10.38-4.05,20.38-13.72,23.95l37.98,60.29c0.48,0.34,17.66,3.17,17.66,26.19c0,34.81-28.23,63.04-63.07,63.04   s-63.07-28.23-63.07-63.04c0-12.44,5.64-23.19,17.66-26.19l37.98-60.29c-5.36-1.96-9.69-6.01-12.08-11.17   c-18.82,6.18-38.75,12.05-57.8,7.97v197.38c15.02,10.15,32.03,17.92,48.9,24.69c20.66-16.72,39.74-28.4,61.17-48.73   c11.91-11.28,25.82-1.87,27.98,15.96c2.69,22.39-13.52,40.76-28.69,56.24c50.12-12.81,46.29-67.72,42.41-123.45   c-0.65-9.55-1.5-16.78-0.68-26.87c0.77-9.24,3-17.83,7.99-24.15c7.11-9.01,23.39-15.22,30.47-2.44c1.11,1.98,1.96,4.39,2.49,7.23   c5.5,29.2,19.11,113.13,14.94,148.25c-8.08,67.95-75.66,95.9-135.21,120.56c-18.82,7.8-36.79,15.25-51.68,23.5   c-10.77,8.5-22.59,13.92-34.7,15.68c-2.01,0.28-3.8,0.28-5.81,0c-12.1-1.76-23.92-7.17-34.7-15.68   c-14.88-8.25-32.88-15.7-51.68-23.5C111.93,426.15,44.38,398.2,36.3,330.25C32.14,295.13,45.72,211.2,51.24,182   c4-21.12,24.18-15.9,32.97-4.79c4.99,6.32,7.23,14.91,7.99,24.15c0.82,10.09-0.03,17.32-0.68,26.87   c-3.91,55.73-7.71,110.64,42.41,123.45c-15.17-15.48-31.38-33.85-28.69-56.24c2.13-17.83,16.07-27.24,27.98-15.96   c21.43,20.32,40.51,32,61.17,48.73c16.87-6.77,33.87-14.54,48.9-24.69V106.15c-19.08,4.08-38.98-1.79-57.8-7.97   c-2.38,5.16-6.75,9.21-12.08,11.17l37.98,60.29c0.48,0.34,17.63,3.17,17.63,26.19c0,34.81-28.23,63.04-63.04,63.04   c-34.84,0-63.07-28.23-63.07-63.04c0-12.44,5.64-23.19,17.66-26.19l37.96-60.29c-9.67-3.57-15.56-13.58-13.69-23.95   c-12.44-2.58-24.49-2.18-33.76,6.8c-14.12,13.75-35.09-7.68-20.89-21.49c29.14-28.29,67.01-19.22,101.06-8.16   c11.14,3.63,23.75,7.71,35.35,7.57c3.77-28.06,38.38-39.97,58.62-19.73c5.19,5.22,8.76,12.08,9.78,19.73   c13.92,0.17,28.86-5.64,42.29-9.78c32.26-9.95,67.01-15.93,94.11,10.37c14.2,13.8-6.77,35.23-20.92,21.49   C401.24,83.22,389.19,82.82,376.75,85.4L376.75,85.4z M365.12,79.64c-8.45-8.45-23.02-2.44-23.02,9.55c0,11.96,14.57,18,23.02,9.52   C370.4,93.45,370.4,84.92,365.12,79.64L365.12,79.64z M165.99,75.7c-11.99,0-18.03,14.54-9.55,23.02   c8.48,8.48,23.02,2.44,23.02-9.52C179.45,81.74,173.42,75.7,165.99,75.7L165.99,75.7z M150.8,74   c13.89-13.89,37.76-3.26,36.62,16.41c16.1,5.27,33.02,10.4,48.87,8.73c-5.44-5.5-9.07-12.81-9.86-20.98   c-15.19,0.09-30.44-5.9-44.48-10.2c-29.45-9.07-61.65-15.36-86.2,8.48c-6.63,6.43,3.23,16.41,9.78,10.06   c12.25-11.91,27.24-12.08,42.24-8.67C148.61,76.44,149.63,75.16,150.8,74L150.8,74z M270.3,108.02c-6.21,1.76-12.84,1.76-19.02,0   v190.03c5.98-3.17,13.04-3.2,19.02,0V108.02z M315.72,456.79c62.73-28.43,152.7-52.41,161.63-127.47   c4.05-34.13-9.52-117.67-14.85-145.84c-1.11-5.84-3.66-9.5-10.06-7.4c-19.02,6.26-15.48,36-14.4,51.62   c4.45,63.78,8.84,126.54-61.71,134.08c-3.83,0.37-5.95-4.14-3.26-6.8c12.93-12.67,31.07-30.25,34.84-47.17   c3.26-14.71-4.34-31.72-14.03-22.54c-20.3,19.22-38.3,30.76-58.11,46.35c7.88,3.12,12.87,10.43,12.84,18.96   C348.57,391.82,336.89,429.98,315.72,456.79L315.72,456.79z M205.87,456.79c-21.17-26.82-32.85-64.94-32.88-106.21   c-0.03-8.53,4.93-15.85,12.84-18.96c-19.84-15.59-37.81-27.13-58.11-46.35c-9.69-9.18-17.29,7.91-14.03,22.54   c3.77,16.92,21.91,34.5,34.84,47.17c2.69,2.66,0.51,7.2-3.2,6.83c-73.7-7.88-65.62-78.89-61.8-134.11   c1.11-15.62,4.65-45.35-14.37-51.62c-6.43-2.1-8.96,1.56-10.06,7.4c-5.33,28.18-18.91,111.71-14.85,145.84   C53.17,404.38,143.14,428.36,205.87,456.79L205.87,456.79z M268.21,306.13c-4.45-3.32-10.37-3.32-14.83,0   c-19.3,14.34-42.18,24.18-64.52,32.85c-4.9,1.9-7.91,6.35-7.91,11.59c0.03,35.43,8.84,65.96,22.56,88.78   c14.6,24.29,34.7,39.71,55.47,42.72c1.22,0.17,2.38,0.17,3.6,0c20.78-3,40.88-18.42,55.47-42.72   c13.72-22.82,22.54-53.35,22.56-88.78c0-5.24-3.03-9.69-7.91-11.59C310.39,330.31,287.51,320.48,268.21,306.13L268.21,306.13z    M201.68,169.16l-35.69-56.64l-35.69,56.64c14.34,1.96,22.93,15.34,35.69,15.34C178.72,184.5,187.31,171.12,201.68,169.16   L201.68,169.16z M391.29,169.16l-35.69-56.64l-35.69,56.64c14.34,1.96,22.96,15.34,35.69,15.34   C368.33,184.5,376.94,171.12,391.29,169.16L391.29,169.16z M127.04,234.76c21.51,21.52,56.38,21.52,77.87,0   c9.98-9.95,16.13-23.73,16.13-38.92c0-10.57-4.88-18.94-15.73-18.94c-6.46,0-10.74,2.86-16.5,6.58   c-6.72,4.34-13.92,9.01-22.82,9.01c-13.78,0-23.61-11.2-32.4-14.37c-8.48-3.03-17.91-0.65-21.29,8.76   c-0.88,2.44-1.39,5.41-1.39,8.96C110.91,211.03,117.09,224.81,127.04,234.76L127.04,234.76z M279.55,56.06   c-16.67-16.67-45.27-4.82-45.27,18.74c0,23.56,28.6,35.43,45.27,18.77C289.92,83.22,289.92,66.41,279.55,56.06L279.55,56.06z"/></g><text x="0" y="527" fill="#000000" font-size="5px" font-weight="bold" font-family="'Helvetica Neue', Helvetica, Arial-Unicode, Arial, Sans-serif">Created by Besokpagi</text><text x="0" y="532" fill="#000000" font-size="5px" font-weight="bold" font-family="'Helvetica Neue', Helvetica, Arial-Unicode, Arial, Sans-serif">from the Noun Project</text></svg>