<svg xmlns="http://www.w3.org/2000/svg" data-name="Layer 1" viewBox="0 0 100 125" x="0px" y="0px"><title>SofSkillsМонтажная область 1 копия 34</title><path d="M74.66,8.76c-.46.28-.94.54-1.42.79l-.71.36h0l0,0-.66.31q-2.22,1-4.49,1.95c-3.91,1.63-7.87,3.14-11.84,4.63l-4.63,1.71c-4.09-2.36-8.14-4.8-12.26-7a2.4,2.4,0,0,0-3.19,1,2.43,2.43,0,0,0,1,3.2c2.67,1.81,5.46,3.47,8.28,5.07-4.69,1.69-9.38,3.36-14.07,5.06-1.63.59-3.24,1.18-4.82,1.89-.73.32-1.43.69-2.14,1l-.11.06-.22.11c-.14.07-.26.17-.39.25s-.38.25-.58.36c-2,1-.36,4,1.65,3.41a5.43,5.43,0,0,1,.58-.13l.33-.07c-.79.16.09,0,.36-.08L27,32.23c1.45-.4,2.86-.91,4.27-1.41,3.86-1.38,7.72-2.74,11.57-4.13,2.54-.91,5.09-1.82,7.62-2.74l.38.2a128.22,128.22,0,0,0,14.47,7.2,2.54,2.54,0,0,0,3.32-1.06A2.48,2.48,0,0,0,67.55,27a100.48,100.48,0,0,1-11-5.26c3.86-1.43,7.7-2.91,11.5-4.47a68.58,68.58,0,0,0,9.36-4.36C80.09,11.24,77.38,7.12,74.66,8.76Z"/><path d="M25.67,36.67a.36.36,0,0,0,0-.11,2,2,0,0,0-.46-1,2.14,2.14,0,0,0-1.08-.67,1.13,1.13,0,0,0-.52,0h0a2,2,0,0,0-1.86,1.57A2.61,2.61,0,0,0,22.36,39a2.06,2.06,0,0,0,3.38-1.09A2.75,2.75,0,0,0,25.67,36.67Z"/><path d="M77.58,19a2.75,2.75,0,0,0-.67-.9h0l0,0a1.48,1.48,0,0,0-1.56-.28,2.24,2.24,0,0,0-1.22,1.18,2.34,2.34,0,0,0,.1,2.42,2,2,0,0,0,1.49.86,1.84,1.84,0,0,0,1.62-.62,5.5,5.5,0,0,0,.34-.5,2.2,2.2,0,0,0,.23-1A2.66,2.66,0,0,0,77.58,19Z"/><path d="M77.4,26.3a1.88,1.88,0,0,0-.71-.63,1.38,1.38,0,0,0-.71-.19,1.79,1.79,0,0,0-1.54.6,4.14,4.14,0,0,0-.48.7,3,3,0,0,0-.27,1.43,2.14,2.14,0,0,0,2.25,2,2.14,2.14,0,0,0,1.48-.7A2.35,2.35,0,0,0,78,28,2.77,2.77,0,0,0,77.4,26.3Z"/><path d="M77.91,34.7a2.12,2.12,0,0,0-.31-.87l-.18-.22A1.79,1.79,0,0,0,75.28,33a2.92,2.92,0,0,0-1.56,3.58,2.26,2.26,0,0,0,2.21,1.51,2.29,2.29,0,0,0,2-1.74A3.68,3.68,0,0,0,77.91,34.7Zm-.38-.93h0l0,.07S77.54,33.8,77.53,33.77Z"/><path d="M77.73,43.17a1.63,1.63,0,0,0,0-.82,3.17,3.17,0,0,0-.38-1,2,2,0,0,0-1.3-.9,2.33,2.33,0,0,0-1.61.29c-1.07.61-1.23,1.78-1.29,2.87a2.31,2.31,0,0,0,.76,1.59,2.34,2.34,0,0,0,1.67.59,2.27,2.27,0,0,0,1.59-.76,2.36,2.36,0,0,0,.59-1.66A1.62,1.62,0,0,0,77.73,43.17Z"/><path d="M78.42,49.39a2.34,2.34,0,0,0-1.76-2.07c-1.75-.57-4.2-.3-6-.18A42.52,42.52,0,0,0,64.8,48a27,27,0,0,0-4.06,1.19,10,10,0,0,0,0-3.94c-.82-4-4.23-6.57-8-7.5A9.89,9.89,0,0,0,40.83,44.8a9.47,9.47,0,0,0,.29,6.85l-2.2-1.08c-2.26-1.1-4.52-2.2-6.88-3.07a30.49,30.49,0,0,0-7.17-1.66,2.06,2.06,0,0,0-2.14,3.1c1.23,1.84,2.78,3.53,4.17,5.25,1.68,2.05,3.38,4.09,5.17,6.05A35.69,35.69,0,0,0,37,64.88a15.42,15.42,0,0,0,1.92,1.24,105.54,105.54,0,0,0-3.18,10.1c-1.06,4.19-2.12,8.91-1.53,13.25.4,3,4.84,2.83,4.71-.24a1,1,0,0,1,0-.17c1.67-1.37,3.29-2.81,5-4.14a36.36,36.36,0,0,1,4.54-3,20,20,0,0,1,3.44-1.75l.29-.08c-.33.08-.07,0,0,0h0l.07,0-.07,0a1.19,1.19,0,0,1,.32,0l-.21-.05.23.05h0l.34.07.2,0a1.6,1.6,0,0,0,.24.12,27.37,27.37,0,0,1,3.43,1.9c2.55,1.62,4.9,3.42,7.5,5.19,2,1.35,4.87,3.54,7.32,2.06a2.23,2.23,0,0,0,1.07-1.38c.75-1.7.28-3.84-.26-5.53a41.6,41.6,0,0,0-3.28-7.19c-1.29-2.38-2.69-4.71-4.13-7-.59-.93-1.2-1.86-1.86-2.75l-.36-.49a21,21,0,0,1,1.91-2.51,46.06,46.06,0,0,1,4.31-4c1.62-1.35,3.32-2.63,4.85-4.07a20.57,20.57,0,0,0,2.81-3l.22,0A2.24,2.24,0,0,0,78.42,49.39Zm-34-2c.52-3.31,3-6.29,6.63-5.61a8.16,8.16,0,0,1,3.86,1.82,4.45,4.45,0,0,1,1.46,2.47,1.7,1.7,0,0,0,.06.21.7.7,0,0,0,0,.23c0,.24,0,.48,0,.72v.22a1.5,1.5,0,0,0,0,.22q-.09.51-.21,1c0,.12-.07.24-.11.36l0,.08a7.45,7.45,0,0,1-.37.75,3.55,3.55,0,0,1-.82,1.16,4.64,4.64,0,0,1-1.26,1l-.27.16-.26.12a9.21,9.21,0,0,1-.93.31l-.2.05-.42,0a6,6,0,0,1-1,0l-.23,0-.76-.1a6.84,6.84,0,0,0-1.63-.1,2.37,2.37,0,0,0-.61.15,11.74,11.74,0,0,1-2.37-2A4.05,4.05,0,0,1,44.38,47.44ZM56.12,49c0-.07,0-.11,0,0Zm9.33,6.66a46.54,46.54,0,0,0-4.6,4.16c-1.28,1.37-2.65,3-2.92,4.9a2.32,2.32,0,0,0,.4,1.76,13.38,13.38,0,0,0,.76,1.56c.48.88,1,1.74,1.52,2.59,1.31,2.12,2.62,4.23,3.83,6.4a41.25,41.25,0,0,1,3,6.21l.18.49C67,83.36,66.4,83,66,82.68c-2.63-1.84-5.2-3.78-8-5.43-2.32-1.4-4.71-2.49-7.45-1.79-3.35.85-5.93,3.26-8.46,5.46-1,.88-2.07,1.81-3.08,2.82.66-6.21,2.72-12.34,4.84-18.13.53-1.45-.24-3.58-2.15-3.32l-.17,0c.08,0,0-.08-.13,0l-.15,0L41,62.09a7.66,7.66,0,0,1-1.77-1.17,46.18,46.18,0,0,1-4.73-4.55c-1.58-1.7-3.1-3.47-4.6-5.26l-.34-.41c.6.2,1.18.42,1.72.63,2.46,1,4.84,2.11,7.22,3.23,3.21,1.5,7.77,4,11.48,2.85a10.45,10.45,0,0,0,2.92-.17,9.68,9.68,0,0,0,4.08-1.89c1.42-.38,2.8-1.17,4.14-1.64a37.28,37.28,0,0,1,5-1.36,32.25,32.25,0,0,1,4.28-.51C68.67,53.08,67.05,54.39,65.45,55.69Z"/><path d="M52.51,80.12h0Z"/><path d="M52.14,80.14h0Z"/><path d="M25.87,41.44a2,2,0,0,0-1.78-.9,2.13,2.13,0,0,0-1.95,2.21,2.25,2.25,0,0,0,.37,1.09,2,2,0,0,0,1.79.9,2.11,2.11,0,0,0,1-.32,2.16,2.16,0,0,0,.68-.76,2,2,0,0,0,.26-1.13A2.36,2.36,0,0,0,25.87,41.44Z"/><text x="0" y="115" fill="#000000" font-size="5px" font-weight="bold" font-family="'Helvetica Neue', Helvetica, Arial-Unicode, Arial, Sans-serif">Created by Denis Legusha</text><text x="0" y="120" fill="#000000" font-size="5px" font-weight="bold" font-family="'Helvetica Neue', Helvetica, Arial-Unicode, Arial, Sans-serif">from the Noun Project</text></svg>