<svg xmlns="http://www.w3.org/2000/svg" data-name="Layer 1" viewBox="0 0 100 125" x="0px" y="0px"><path d="M46.8,81.2a.5.5,0,0,1,.143.356l-.108,6.26a.519.519,0,0,1-.161.362.525.525,0,0,1-.37.153L23.94,88.134a.5.5,0,0,1-.356-.151.5.5,0,0,1-.143-.356l.108-6.26a.517.517,0,0,1,.161-.361.529.529,0,0,1,.371-.154l22.361.2A.49.49,0,0,1,46.8,81.2ZM59.245,31.026,53.479,30.3v0a1.277,1.277,0,0,1-1-.729L50,24.3l-2.429,5.17a1.284,1.284,0,0,1-1.05.83l-5.766.725,4.206,3.944a1.284,1.284,0,0,1,.419,1.21l-1.094,5.713,5.083-2.8a1.281,1.281,0,0,1,1.249-.008l5.1,2.806L54.62,36.18h0A1.284,1.284,0,0,1,55,35.005Zm-32.2,43.85L27,78.316l16.6.145c.665-4.643.387-8.186-.893-10.978-1.327-2.892-3.783-5.055-7.434-6.885l-.024-.013v0L24.421,54.852a7.1,7.1,0,0,0-2.6-.892,2.193,2.193,0,0,0-1.788.592l0,0h0c-.023.022-.046.044-.069.064a2.892,2.892,0,0,0-.076,3.933l6.267,4.182a1.282,1.282,0,1,1-1.426,2.13l-6.3-4.2a1.3,1.3,0,0,1-.285-.215h0l0,0-.013-.013a5.462,5.462,0,0,1,.019-7.623c.02-.023.042-.046.064-.068h0l0,0,.013-.012h0a4.931,4.931,0,0,1,.793-.634L11.472,35.8a1.541,1.541,0,0,0-.244-.377A2.147,2.147,0,0,0,9.849,34.8a3.6,3.6,0,0,0-1.9.314,2.984,2.984,0,0,0-.74.477,2.729,2.729,0,0,0-.925,2,6.957,6.957,0,0,0,.621,2.843l9.846,24.007,9.894,9.438A1.28,1.28,0,0,1,27.043,74.876Zm49.247,6.13a.529.529,0,0,0-.371-.154l-22.364.2a.489.489,0,0,0-.352.15.5.5,0,0,0-.143.356l.108,6.26a.519.519,0,0,0,.161.362.525.525,0,0,0,.37.153l22.374-.2a.49.49,0,0,0,.343-.15.5.5,0,0,0,.143-.346l-.108-6.27A.517.517,0,0,0,76.29,81.006ZM93.714,37.581a2.729,2.729,0,0,0-.925-2,2.984,2.984,0,0,0-.74-.477,3.6,3.6,0,0,0-1.9-.314,2.147,2.147,0,0,0-1.379.632,1.541,1.541,0,0,0-.244.377L80.971,52.092a4.931,4.931,0,0,1,.793.634h0l.013.012,0,0h0c.023.022.044.045.064.068a5.462,5.462,0,0,1,.019,7.623l-.013.013,0,0h0a1.3,1.3,0,0,1-.285.215l-6.3,4.2a1.282,1.282,0,1,1-1.426-2.13l6.267-4.182a2.892,2.892,0,0,0-.076-3.933l-.069-.064h0l0,0a2.193,2.193,0,0,0-1.788-.592,7.1,7.1,0,0,0-2.6.892L64.748,60.588v0l-.024.013c-3.651,1.83-6.107,3.993-7.434,6.885-1.28,2.792-1.558,6.335-.893,10.978L73,78.316l-.042-3.44a1.28,1.28,0,0,1,.4-1.007l9.894-9.438,9.846-24.007A6.957,6.957,0,0,0,93.714,37.581ZM50,53.9C37.959,50.654,30.09,39.334,27.653,29.1a23.168,23.168,0,0,1-.321-10.643c.7-2.833,2.177-5.017,4.5-6.064,3.615-1.631,9.339-.674,17.466,4.507a1.28,1.28,0,0,0,1.394.011c8.136-5.191,13.866-6.15,17.484-4.518,2.319,1.047,3.8,3.231,4.5,6.064A23.168,23.168,0,0,1,72.347,29.1C69.91,39.334,62.041,50.654,50,53.9Zm8.748-9.809-1.474-7.7,5.661-5.31a1.285,1.285,0,0,0-.664-2.265l-7.779-.978L51.16,20.747h0a1.28,1.28,0,0,0-2.32,0l-3.332,7.091-7.779.978v0a1.282,1.282,0,0,0-.724,2.207l5.721,5.365-1.474,7.7a1.283,1.283,0,0,0,1.878,1.366L50,41.677l6.87,3.782a1.283,1.283,0,0,0,1.878-1.366Z"/><text x="0" y="115" fill="#000000" font-size="5px" font-weight="bold" font-family="'Helvetica Neue', Helvetica, Arial-Unicode, Arial, Sans-serif">Created by kholifah</text><text x="0" y="120" fill="#000000" font-size="5px" font-weight="bold" font-family="'Helvetica Neue', Helvetica, Arial-Unicode, Arial, Sans-serif">from the Noun Project</text></svg>