<svg xmlns="http://www.w3.org/2000/svg" xmlns:xlink="http://www.w3.org/1999/xlink" version="1.1" x="0px" y="0px" viewBox="0 0 72 90" style="enable-background:new 0 0 72 72;" xml:space="preserve"><style type="text/css">
	.st0{fill-rule:evenodd;clip-rule:evenodd;}
</style><path d="M35.95,8.15c-15.41,0-27.8,12.48-27.8,27.8c0,15.41,12.39,27.89,27.8,27.89c15.41,0,27.89-12.48,27.89-27.89  C63.85,20.63,51.37,8.15,35.95,8.15L35.95,8.15z M35.95,6.45c16.36,0,29.5,13.24,29.5,29.5c0,16.36-13.14,29.6-29.5,29.6  c-16.26,0-29.5-13.24-29.5-29.6C6.45,19.69,19.69,6.45,35.95,6.45L35.95,6.45z M35.95,3.99C18.27,3.99,3.9,18.27,3.9,35.95  c0,17.78,14.37,32.06,32.06,32.06c17.68,0,32.06-14.28,32.06-32.06C68.01,18.27,53.64,3.99,35.95,3.99L35.95,3.99z M45.79,51.27  l-7.94-0.09c-1.42-6.15-0.76-9.74-0.28-12.01c0.19-0.85,0.28-1.51,0.38-2.17l0.09-6.71c0.09-1.7,2.74-2.08,3.03,0.09l0.76,7.66  c0,0.19,0,0.28,0.09,0.47l2.74,3.97c0.66,0.95,1.99,0,1.42-0.85l-2.65-3.97l-0.76-7.47c-0.28-2.74-2.84-3.5-4.63-2.65V15.81  c0-2.17,2.65-2.17,2.93,0l1.99,12.86v0.19l3.97,10.21c0.76,2.17,0.95,3.69,0.19,5.96C46.45,47.21,45.88,49.1,45.79,51.27  L45.79,51.27z M34.16,51.18l-7.94,0.09c-0.19-2.17-0.76-4.07-1.42-6.24c-0.66-2.27-0.47-3.78,0.28-5.96l3.88-10.21v-0.19l1.99-12.86  c0.28-2.17,2.93-2.17,2.93,0v11.73c-1.7-0.85-4.35-0.09-4.63,2.65l-0.76,7.47l-2.65,3.97c-0.57,0.85,0.85,1.8,1.42,0.85L30,38.51  c0.09-0.19,0.09-0.28,0.19-0.47l0.76-7.66c0.19-2.17,2.93-1.8,2.93-0.09l0.19,6.71c0,0.66,0.09,1.32,0.28,2.17  C34.82,41.44,35.57,45.03,34.16,51.18L34.16,51.18z M36.8,53.26c0.09-0.28,0.38-0.38,0.57-0.38l9.65,0.09  c0.28,0,0.57,0.19,0.57,0.57v1.04H36.8C36.8,54.11,36.8,53.73,36.8,53.26L36.8,53.26z M25.17,59.03l8.04,3.03  c1.13,0.38,2.08,0,2.74-0.76c0.66,0.76,1.7,1.13,2.74,0.76l8.04-3.03c1.51-0.47,2.46-1.61,2.46-3.12l0.09-2.36  c-0.09-1.32-0.76-2.08-1.89-2.27c0.19-1.99,0.76-3.78,1.32-5.77c0.38-1.23,0.57-2.36,0.47-3.5c0-1.23-0.28-2.36-0.76-3.5  l-3.88-10.12l-1.89-12.86c-0.66-4.16-6.24-3.88-6.24,0.28l-0.09,15.13l-0.09,6.05c0,0.38-0.09,1.04-0.28,1.7  c-0.09-0.66-0.28-1.32-0.28-1.7l-0.09-6.05V15.81c0-4.16-5.67-4.44-6.24-0.28l-1.99,12.86l-3.88,10.12  c-0.38,1.13-0.66,2.27-0.76,3.5c-0.09,1.13,0.09,2.27,0.47,3.5c0.57,1.99,1.13,3.78,1.32,5.77c-1.13,0.19-1.7,0.95-1.8,2.27v2.36  C22.71,57.42,23.75,58.55,25.17,59.03L25.17,59.03z M24.32,54.58v-1.04c0-0.38,0.28-0.57,0.66-0.57l9.55-0.09  c0.19,0,0.57,0.09,0.57,0.38c0,0.47,0,0.85,0,1.32H24.32z M33.78,60.44l-8.04-3.03c-0.66-0.19-1.13-0.47-1.32-1.13l10.69-0.09v3.03  C35.1,60.07,34.63,60.63,33.78,60.44L33.78,60.44z M38.22,60.44c-0.95,0.19-1.32-0.38-1.32-1.23l-0.09-3.03l10.69,0.09  c-0.19,0.66-0.66,0.95-1.23,1.13L38.22,60.44z M58.17,30c-0.85,0-1.61,0.76-1.61,1.7c0,0.85,0.76,1.61,1.61,1.61  c0.95,0,1.7-0.76,1.7-1.61C59.88,30.75,59.12,30,58.17,30L58.17,30z M58.17,28.29c1.89,0,3.4,1.51,3.4,3.4c0,1.8-1.51,3.31-3.4,3.31  c-1.8,0-3.31-1.51-3.31-3.31C54.86,29.81,56.38,28.29,58.17,28.29L58.17,28.29z M13.73,30c0.95,0,1.7,0.76,1.7,1.7  c0,0.85-0.76,1.61-1.7,1.61c-0.95,0-1.7-0.76-1.7-1.61C12.03,30.75,12.79,30,13.73,30L13.73,30z M13.73,28.29  c-1.89,0-3.31,1.51-3.31,3.4c0,1.8,1.42,3.31,3.31,3.31c1.8,0,3.31-1.51,3.31-3.31C17.04,29.81,15.53,28.29,13.73,28.29L13.73,28.29  z M55.53,45.79c-0.95,0-1.7,0.76-1.7,1.7c0,0.85,0.76,1.61,1.7,1.61c0.95,0,1.61-0.76,1.61-1.61  C57.13,46.54,56.47,45.79,55.53,45.79L55.53,45.79z M55.53,44.18c1.8,0,3.31,1.42,3.31,3.31c0,1.8-1.51,3.31-3.31,3.31  c-1.89,0-3.31-1.51-3.31-3.31C52.22,45.6,53.64,44.18,55.53,44.18L55.53,44.18z M16.47,45.79c0.85,0,1.61,0.76,1.61,1.7  c0,0.85-0.76,1.61-1.61,1.61c-0.95,0-1.7-0.76-1.7-1.61C14.77,46.54,15.53,45.79,16.47,45.79L16.47,45.79z M16.47,44.18  c-1.89,0-3.4,1.42-3.4,3.31c0,1.8,1.51,3.31,3.4,3.31c1.8,0,3.31-1.51,3.31-3.31C19.78,45.6,18.27,44.18,16.47,44.18L16.47,44.18z   M49.29,16c-0.95,0-1.7,0.76-1.7,1.7c0,0.85,0.76,1.61,1.7,1.61c0.95,0,1.7-0.76,1.7-1.61C50.99,16.76,50.23,16,49.29,16L49.29,16z   M49.29,14.3c1.8,0,3.31,1.51,3.31,3.4c0,1.8-1.51,3.31-3.31,3.31s-3.31-1.51-3.31-3.31C45.98,15.81,47.49,14.3,49.29,14.3  L49.29,14.3z M22.62,16c0.95,0,1.7,0.76,1.7,1.7c0,0.85-0.76,1.61-1.7,1.61c-0.85,0-1.61-0.76-1.61-1.61  C21.01,16.76,21.77,16,22.62,16L22.62,16z M22.62,14.3c-1.8,0-3.31,1.51-3.31,3.4c0,1.8,1.51,3.31,3.31,3.31  c1.89,0,3.4-1.51,3.4-3.31C26.02,15.81,24.51,14.3,22.62,14.3L22.62,14.3z M35.95,2.29c18.63,0,33.76,15.13,33.76,33.66  c0,18.63-15.13,33.76-33.76,33.76c-18.63,0-33.66-15.13-33.66-33.76C2.29,17.42,17.32,2.29,35.95,2.29L35.95,2.29z"/><text x="0" y="87" fill="#000000" font-size="5px" font-weight="bold" font-family="'Helvetica Neue', Helvetica, Arial-Unicode, Arial, Sans-serif">Created by Dan's</text><text x="0" y="92" fill="#000000" font-size="5px" font-weight="bold" font-family="'Helvetica Neue', Helvetica, Arial-Unicode, Arial, Sans-serif">from the Noun Project</text></svg>