<svg xmlns="http://www.w3.org/2000/svg" xmlns:xlink="http://www.w3.org/1999/xlink" version="1.1" x="0px" y="0px" viewBox="0 0 512 640" style="enable-background:new 0 0 512 512;" xml:space="preserve"><g><path d="M258.85,198.75c8.99,0,15.11-11.08,18.03-18.14c3.97-9.75,5.7-20.92-2.98-29c-8.33-7.8-21.77-7.82-30.13,0   c-8.65,8.05-6.94,19.25-2.95,29C243.77,187.75,249.89,198.75,258.85,198.75L258.85,198.75z M337.14,90.75   c-8.99,0-15.11-11.08-18.03-18.14c-3.97-9.72-5.7-20.92,2.95-29c8.36-7.8,21.8-7.82,30.16,0c8.65,8.05,6.94,19.25,2.95,29   C352.22,79.75,346.1,90.75,337.14,90.75L337.14,90.75z M353.61,90.52c15.08,4.99,26.16,9.95,24.58,28.74   c-0.28,3.34-0.43,5.19-1.16,9.35c-2.98,16.95-25.2,22.17-39.69,22.14c-14.48,0.03-36.71-5.19-39.69-22.14   c-0.74-4.17-0.88-6.01-1.16-9.35c-1.59-18.68,9.3-23.67,24.26-28.63C330.6,101.49,343.83,101.44,353.61,90.52L353.61,90.52z    M180.16,90.75c8.99,0,15.11-11.08,18-18.14c4-9.72,5.73-20.92-2.95-29c-8.33-7.8-21.77-7.82-30.13,0   c-8.65,8.05-6.95,19.25-2.95,29C165.08,79.75,171.2,90.75,180.16,90.75L180.16,90.75z M163.69,90.52   c-15.11,4.99-26.16,9.95-24.58,28.74c0.28,3.34,0.42,5.19,1.16,9.35c2.98,16.95,25.2,22.17,39.69,22.14   c14.48,0.03,36.71-5.19,39.69-22.14c0.71-4.17,0.88-6.01,1.16-9.35c1.56-18.68-9.3-23.67-24.26-28.63   C186.71,101.49,173.44,101.44,163.69,90.52L163.69,90.52z M434.2,171.76c-8.99,0-15.11-11.08-18-18.17c-4-9.72-5.73-20.89,2.95-29   c8.33-7.77,21.8-7.8,30.13,0c8.65,8.08,6.95,19.28,2.95,29C449.28,160.77,443.16,171.76,434.2,171.76L434.2,171.76z M450.7,171.54   c15.08,4.96,26.14,9.92,24.55,28.71c-0.28,3.34-0.42,5.22-1.16,9.38c-2.98,16.95-25.2,22.17-39.69,22.11   c-14.46,0.06-36.71-5.16-39.69-22.11c-0.71-4.17-0.88-6.04-1.16-9.38c-1.56-18.65,9.3-23.64,24.29-28.63   C427.68,182.51,440.92,182.42,450.7,171.54L450.7,171.54z M83.1,171.76c8.99,0,15.11-11.08,18-18.17c4-9.72,5.73-20.89-2.95-29   c-8.36-7.77-21.8-7.8-30.13,0c-8.65,8.08-6.94,19.28-2.95,29C67.99,160.77,74.12,171.76,83.1,171.76L83.1,171.76z M66.61,171.54   c-15.08,4.96-26.14,9.92-24.55,28.71c0.28,3.34,0.43,5.22,1.16,9.38c2.98,16.95,25.2,22.17,39.69,22.11   c14.46,0.06,36.71-5.16,39.69-22.11c0.71-4.17,0.88-6.04,1.16-9.38c1.56-18.65-9.3-23.64-24.29-28.63   C89.62,182.51,76.39,182.42,66.61,171.54L66.61,171.54z M179.65,279.91h-36.51v76c0,63.52,51.99,115.51,115.51,115.51   s115.51-51.99,115.51-115.51v-76h-36.51v76c0,19.62-7.26,37.64-19.22,51.51l-0.11,0.74c-6.52,37.39-68.66,44.31-99.69,26.22   c-10.32-6.01-17.63-14.77-19.64-26.22l-0.11-0.74c-11.96-13.86-19.22-31.89-19.22-51.51V279.91z M143.14,271.88h36.51V237.9h-36.51   V271.88z M337.65,271.88h36.51V237.9h-36.51V271.88z M258.91,359.31c12.05,0.03,20.13-14.34,24.04-23.87   c5.3-12.93,7.37-27.64-4.02-38.3c-11.08-10.35-28.97-10.35-40.03,0c-11.4,10.66-9.35,25.37-4.05,38.3   C238.75,344.96,246.86,359.33,258.91,359.31L258.91,359.31z M258.91,367.27c-8.5,0-15.36-4.48-20.72-10.63   c-20.1,6.6-34.95,12.95-32.83,38.07c0.37,4.31,0.57,6.69,1.5,12.05c6.83,39.03,96.75,39.03,103.58,0c0.94-5.36,1.13-7.74,1.5-12.05   c2.1-24.94-12.47-31.32-32.46-37.96C274.16,362.88,267.33,367.27,258.91,367.27L258.91,367.27z M242.38,198.52   c-15.11,4.99-26.16,9.92-24.58,28.74c0.28,3.34,0.43,5.19,1.16,9.35c2.98,16.95,25.2,22.17,39.69,22.14   c14.49,0.03,36.71-5.19,39.69-22.14c0.71-4.17,0.88-6.01,1.16-9.35c1.59-18.68-9.3-23.67-24.26-28.63   C265.4,209.49,252.16,209.44,242.38,198.52L242.38,198.52z M82.73,359.45l-27.75,7c-2.3,0.57-3.2,3.29-1.81,5.13l30.08,48.02   c1.84,2.95,6.35,1.13,6.04-1.73v-36.6l27.75-6.97c2.27-0.57,3.2-3.29,1.81-5.13l-30.08-48.02c-1.73-2.78-6.01-1.5-6.01,1.73   L82.73,359.45z M434.57,359.48l27.75,6.97c2.27,0.57,3.2,3.29,1.81,5.13l-30.08,48.02c-1.84,2.95-6.35,1.13-6.04-1.73v-36.6   l-27.75-6.97c-2.3-0.57-3.2-3.29-1.81-5.13l30.08-48.02c1.73-2.78,6.01-1.5,6.01,1.73L434.57,359.48z"/></g><text x="0" y="527" fill="#000000" font-size="5px" font-weight="bold" font-family="'Helvetica Neue', Helvetica, Arial-Unicode, Arial, Sans-serif">Created by EVI TRI KURNIAWATI</text><text x="0" y="532" fill="#000000" font-size="5px" font-weight="bold" font-family="'Helvetica Neue', Helvetica, Arial-Unicode, Arial, Sans-serif">from the Noun Project</text></svg>