<svg xmlns="http://www.w3.org/2000/svg" data-name="Layer 1" viewBox="0 0 100 125" x="0px" y="0px"><defs><style>.cls-1{fill-rule:evenodd;}</style></defs><path class="cls-1" d="M37.91,17.81a29,29,0,0,1,16,4.76,18.6,18.6,0,0,0,5.75,20.24,2.52,2.52,0,0,1,.88,1.41,4.3,4.3,0,0,0-1.39,3.16v7.88a4.34,4.34,0,0,0,4.32,4.32h.73a28.42,28.42,0,0,1-3.07,5A14.5,14.5,0,0,0,58,73.73v22.9a.78.78,0,0,1-.78.78H30.33a.78.78,0,0,1-.78-.78V85.79A2.83,2.83,0,0,0,26.72,83H17.35a8.6,8.6,0,0,1-8.58-8.58V66.2a.77.77,0,0,0-.54-.75l-3.3-1.07a3.39,3.39,0,0,1-2-4.63L8.77,46.94A29.14,29.14,0,0,1,37.91,17.81ZM63.43,45.4a2,2,0,0,0-2,2v7.88a2,2,0,0,0,2,2H79.55a2,2,0,0,0,2-2V47.38a2,2,0,0,0-2-2ZM88.17,10.18a1.17,1.17,0,1,1,1.65,1.65l-2.53,2.54a1.17,1.17,0,0,1-1.66-1.66l2.54-2.53Zm8.07,17.16a1.17,1.17,0,1,1,0,2.34H92.66a1.17,1.17,0,0,1,0-2.34ZM89.82,45.19a1.17,1.17,0,1,1-1.65,1.65l-2.54-2.53a1.17,1.17,0,0,1,1.66-1.66l2.53,2.54ZM53.16,11.83a1.17,1.17,0,1,1,1.65-1.65l2.54,2.53a1.17,1.17,0,0,1-1.66,1.66l-2.53-2.54ZM70.32,3.76a1.17,1.17,0,1,1,2.34,0V7.34a1.17,1.17,0,1,1-2.34,0V3.76Zm10,39.38A4.76,4.76,0,0,1,81.86,41a16.25,16.25,0,1,0-20.75,0,4.79,4.79,0,0,1,1.51,2.13,4.28,4.28,0,0,1,.81-.08h6.89V38.6l-6.44-9.86a1.17,1.17,0,0,1,2-1.27l5.66,8.66,5.74-8.67a1.17,1.17,0,1,1,2,1.29l-6.53,9.86v4.45h6.89a4.36,4.36,0,0,1,.81.08ZM66.9,59.58l.47,1.64c.29,1,.89,1.61,1.59,1.61H74c.7,0,1.3-.61,1.59-1.61l.47-1.64ZM49,49.82a3.6,3.6,0,0,1,2.82-2,1.4,1.4,0,0,0,1.13-1.22,16.79,16.79,0,0,0,0-3.75,1.4,1.4,0,0,0-1.13-1.22,3.62,3.62,0,0,1-2.82-2,3.6,3.6,0,0,1,.59-3.41,1.38,1.38,0,0,0-.06-1.66,17,17,0,0,0-2.68-2.69,1.4,1.4,0,0,0-1.66-.06,3.64,3.64,0,0,1-3.41.6,3.59,3.59,0,0,1-2-2.84,1.39,1.39,0,0,0-1.22-1.13,16.1,16.1,0,0,0-3.8,0,1.39,1.39,0,0,0-1.22,1.13,3.62,3.62,0,0,1-2,2.84,3.63,3.63,0,0,1-3.41-.6,1.4,1.4,0,0,0-1.66.06,16.24,16.24,0,0,0-2.68,2.69,1.38,1.38,0,0,0-.07,1.66,3.61,3.61,0,0,1,.6,3.41,3.62,3.62,0,0,1-2.82,2,1.39,1.39,0,0,0-1.13,1.22,16.79,16.79,0,0,0,0,3.75,1.39,1.39,0,0,0,1.13,1.22,3.22,3.22,0,0,1,2.22,5.39,1.38,1.38,0,0,0,.07,1.66,16.24,16.24,0,0,0,2.68,2.69,1.4,1.4,0,0,0,1.66.06,3.63,3.63,0,0,1,3.41-.6,3.62,3.62,0,0,1,2,2.84A1.39,1.39,0,0,0,34.74,61a16.65,16.65,0,0,0,3.8,0,1.39,1.39,0,0,0,1.22-1.13,3.59,3.59,0,0,1,2-2.84,3.64,3.64,0,0,1,3.41.6,1.4,1.4,0,0,0,1.66-.06,17,17,0,0,0,2.68-2.69,1.38,1.38,0,0,0,.06-1.66A3.6,3.6,0,0,1,49,49.82Zm-12.32-13a7.88,7.88,0,1,0,7.87,7.87A7.88,7.88,0,0,0,36.64,36.87Z"/><text x="0" y="115" fill="#000000" font-size="5px" font-weight="bold" font-family="'Helvetica Neue', Helvetica, Arial-Unicode, Arial, Sans-serif">Created by Articon</text><text x="0" y="120" fill="#000000" font-size="5px" font-weight="bold" font-family="'Helvetica Neue', Helvetica, Arial-Unicode, Arial, Sans-serif">from the Noun Project</text></svg>