<svg xmlns="http://www.w3.org/2000/svg" xmlns:sodipodi="http://sodipodi.sourceforge.net/DTD/sodipodi-0.dtd" viewBox="0 0 100 125" x="0px" y="0px"><path d="m 50,5.000002 c -24.822609,0 -45.0000002,20.177387 -45.0000002,45 0,24.822612 20.1773912,44.999999 45.0000002,44.999999 24.822613,0 45.000003,-20.177387 45.000003,-44.999999 0,-24.822613 -20.17739,-45 -45.000003,-45 z m 0,5.459883 c 21.867612,0 39.540121,17.672505 39.540121,39.540117 0,21.867611 -17.672509,39.540117 -39.540121,39.540117 -21.867607,0 -39.540117,-17.672506 -39.540117,-39.540117 0,-21.867612 17.67251,-39.540117 39.540117,-39.540117 z" color="#000" fill-rule="evenodd"/><path d="M 35.350003,32.3 C 32.756335,32.3 30.6,34.456299 30.6,37.050001 c 0,2.593698 2.156335,4.749998 4.750003,4.749998 2.593661,0 4.749998,-2.1563 4.749998,-4.749998 0,-2.593702 -2.156337,-4.750001 -4.749998,-4.750001 z" color="#000"/><path d="M 64.650002,32.3 C 62.056343,32.3 59.9,34.4563 59.9,37.050001 c 0,2.593698 2.156343,4.749998 4.750002,4.749998 2.593658,0 4.749997,-2.1563 4.749997,-4.749998 C 69.399999,34.4563 67.24366,32.3 64.650002,32.3 z" color="#000"/><path d="m 47.843752,69.9375 -5.625,-5.84375 -5.65625,5.875 c -0.662643,0.68827 -1.372853,1.031287 -2.09375,1.03125 -0.811595,-4.1e-5 -1.546873,-0.371758 -2.0625,-0.90625 l -7.6875,-7.96875 c -1.467361,-1.521045 0.01132,-4.278632 2.09375,-4.125 0.677151,0.04996 1.29341,0.372588 1.75,0.84375 l 5.875,6.0625 5.4375,-5.625 c 0.824887,-0.853331 1.500509,-1.274347 2.40625,-1.28125 0.892445,-0.0068 1.583034,0.596223 2.21875,1.25 l 5.5,5.65625 5.5,-5.65625 c 0.635716,-0.653777 1.326305,-1.2568 2.21875,-1.25 0.905741,0.0069 1.581363,0.427919 2.40625,1.28125 l 5.4375,5.625 5.875,-6.0625 c 0.45659,-0.471162 1.072849,-0.79379 1.75,-0.84375 2.082428,-0.153632 3.561111,2.603955 2.09375,4.125 l -7.6875,7.96875 c -0.515627,0.534492 -1.250905,0.906209 -2.0625,0.90625 -0.720897,3.7e-5 -1.431107,-0.34298 -2.09375,-1.03125 l -5.65625,-5.875 -5.625,5.84375 C 51.541891,70.575753 51.008895,71 50.000002,71 c -1.008893,0 -1.541889,-0.424247 -2.15625,-1.0625 z" color="#000"/><text x="0" y="115" fill="#000000" font-size="5px" font-weight="bold" font-family="'Helvetica Neue', Helvetica, Arial-Unicode, Arial, Sans-serif">Created by Magicon</text><text x="0" y="120" fill="#000000" font-size="5px" font-weight="bold" font-family="'Helvetica Neue', Helvetica, Arial-Unicode, Arial, Sans-serif">from the Noun Project</text></svg>