<svg xmlns="http://www.w3.org/2000/svg" data-name="Layer 2" viewBox="0 0 32 40" x="0px" y="0px"><title>love-valentine-heart-broken-broke</title><path d="M15.88,24.2l-1.77-4.44a1,1,0,0,1,0-.74l1.77-4.43-1.77-4.42a1,1,0,0,1,0-.69l1.25-3.77L15,5.39a8.24,8.24,0,0,0-11.6,0,8.1,8.1,0,0,0,0,11.53l11,10.94ZM10,9a3,3,0,0,0-3,3,1,1,0,0,1-2,0A4.94,4.94,0,0,1,6.45,8.48,5,5,0,0,1,10,7a1,1,0,0,1,0,2Z"/><path d="M28.59,5.38A8.25,8.25,0,0,0,17.78,4.7L16.1,9.76l1.79,4.46a1,1,0,0,1,0,.74l-1.77,4.43,1.77,4.44a1,1,0,0,1,0,.74L16.13,29a1,1,0,0,0,.57-.27l11.89-11.8a8.1,8.1,0,0,0,0-11.53Z"/><text x="0" y="47" fill="#000000" font-size="5px" font-weight="bold" font-family="'Helvetica Neue', Helvetica, Arial-Unicode, Arial, Sans-serif">Created by DailyYouth</text><text x="0" y="52" fill="#000000" font-size="5px" font-weight="bold" font-family="'Helvetica Neue', Helvetica, Arial-Unicode, Arial, Sans-serif">from the Noun Project</text></svg>