<svg xmlns="http://www.w3.org/2000/svg" xmlns:xlink="http://www.w3.org/1999/xlink" version="1.1" x="0px" y="0px" viewBox="0 0 512 640" style="enable-background:new 0 0 512 512;" xml:space="preserve"><g><path d="M184.7,167.5h171c8,0,8,12.2,0,12.2H183.9l25.5,15.3c6.9,4.1,0.6,14.5-6.3,10.4l-43.4-26c-3.9-2.3-3.9-7.9-0.1-10.4l0,0   l42.7-27.1c6.8-4.3,13.3,6,6.5,10.3L184.7,167.5z M334.7,108.8H162.9c-8,0-8-12.2,0-12.2h171l-24.2-15.4   c-6.8-4.3-0.3-14.6,6.5-10.3L359,98.1v0c3.8,2.4,3.8,8-0.1,10.3l-43.5,26c-6.9,4.1-13.1-6.3-6.2-10.4L334.7,108.8z M440.2,301.8   h44.1c3.4,0,6.1,2.7,6.1,6.1V429c0,3.4-2.7,6.1-6.1,6.1h-44.1c-3.4,0-6.1-2.7-6.1-6.1v-2.6c-19.3-0.1-25.6,15.6-57.1,15.6h-64.4   c-19.7,0-27.3-20.6-19.1-34.5c-13.9-5.9-17.1-24.9-7.4-36c-11.3-8.6-10.9-25.4-0.3-34.3c-12.2-13-5.6-38.3,16.3-38.3h34.7   c-5.2-16.9-10.6-42.2,3-54.9c9-8.3,24.4-9.2,31.4,0.7c1.9,2.7,3.1,5.8,4.2,9.2c6.9,21.4,13.7,35,23.3,43.2   c8.4,7.1,19.5,10.5,35.4,11.8v-1C434.1,304.5,436.8,301.8,440.2,301.8L440.2,301.8z M434.1,414.3V321   c-42.2-3.3-56.6-21.1-70.3-63.4c-1.1-3.4-2.1-6.9-5.2-7.6c-4-0.9-7.6,0.1-10.6,2.9c-10.2,9.4-1.4,37.9,2.8,50.1   c1.3,3.9-1.5,8.1-5.9,8.1h-42.9c-13.6,0-13.6,20.6,0,20.6v12.2c-15.2,0-17.6,20.6,0.7,20.6v12.2c-13.6,0-13.6,20.6,0,20.6h9.7v12.2   c-13.6,0-13.6,20.6,0,20.6H377C405.5,429.9,410.9,414,434.1,414.3L434.1,414.3z M478.2,314h-31.9v109h31.9V314z M65.8,314H33.8v109   h31.9V314z M27.8,301.8h44.1c3.4,0,6.1,2.7,6.1,6.1v1c15.9-1.3,27-4.7,35.4-11.8c9.7-8.2,16.4-21.7,23.3-43.2   c2.4-7.5,5.6-13.9,14.2-15.8c7.8-1.7,15.6,0.4,21.4,5.9c13.7,12.7,8.2,38,3,54.9h34.7c21.9,0,28.4,25.3,16.3,38.3   c10.6,8.9,11,25.7-0.3,34.3c9.7,11.1,6.6,30.1-7.4,36c8.2,13.9,0.6,34.5-19.1,34.5H135c-31.5,0-37.8-15.7-57.1-15.6v2.6   c0,3.4-2.7,6.1-6.1,6.1H27.8c-3.4,0-6.1-2.7-6.1-6.1V307.9C21.7,304.5,24.4,301.8,27.8,301.8L27.8,301.8z M77.9,321v93.2   c23.2-0.3,28.6,15.6,57.1,15.6h64.4c13.6,0,13.6-20.6,0-20.6v-12.2h9.7c13.6,0,13.6-20.6,0-20.6v-12.2c18.3,0,16-20.6,0.7-20.6   v-12.2c13.6,0,13.6-20.6,0-20.6l-43.5,0c-4.1-0.4-6.5-4.4-5.3-8c4.2-12.1,15.6-48-2.1-52.9c-2.4-0.6-6.6-0.8-8.4,1.7   c-4.1,5.7-9.3,37.3-29.5,54.5C110.4,315.4,96.9,319.5,77.9,321L77.9,321z"/></g><text x="0" y="527" fill="#000000" font-size="5px" font-weight="bold" font-family="'Helvetica Neue', Helvetica, Arial-Unicode, Arial, Sans-serif">Created by aristeles</text><text x="0" y="532" fill="#000000" font-size="5px" font-weight="bold" font-family="'Helvetica Neue', Helvetica, Arial-Unicode, Arial, Sans-serif">from the Noun Project</text></svg>