<svg xmlns="http://www.w3.org/2000/svg" xmlns:xlink="http://www.w3.org/1999/xlink" version="1.1" x="0px" y="0px" viewBox="0 0 500 625" style="enable-background:new 0 0 500 500;" xml:space="preserve"><style type="text/css">
	.st0{fill-rule:evenodd;clip-rule:evenodd;}
</style><path class="st0" d="M187.9,400.6c-2.1-3.3-1.2-7.8,2.2-9.9c3.3-2.1,7.8-1.2,9.9,2.2c11.9,18.6,28.5,33.4,49.7,44.5  c20.8,10.9,46.2,18.1,76,21.7c3.9,0.3,7.7,0.5,11.2,0.8c30.1,2.3,46.4,3.6,51.1-39.5c0.1-0.7,0.1-1.7,0.2-2.7  c0.5-7.1,0.9-12.3,9.3-14.6c4.8-1.4,7.9-3.2,9.5-5.3c1.1-1.4,1.4-3,1.3-4.6c-0.2-2.1-1.2-4.4-2.7-6.6c-3.1-4.5-8.3-8.4-14.2-10.4  l0,0l-0.1,0c-3.8-1.3-5.7-5.4-4.5-9.1c1.3-3.7,5.3-5.7,9-4.5l0,0c0.5,0.2,1,0.4,1.6,0.5c6.4,2.1,11.4,3.1,15.5,3  c3.8-0.1,6.9-1.2,9.9-3.3l0.3-0.3c1.9-1.6,3-4.4,3.3-7.3c0.3-3.1-0.1-6-1.3-7.6l-0.2-0.2c-3.5-4.4-5.5-9.4-5.8-14.2  c-0.2-2.8,0.2-5.5,1.1-8.1c1-2.7,2.7-5.1,5-7c2.7-2.2,6.1-3.5,10.3-3.8c21.9-1.5,30.6-5.1,30.6-11.4c-0.1-8.8-10.3-23.8-25.5-44.7  c-3.5-4.8-6.5-8.8-9.3-12.4c-15.5-20.2-23.3-30.4-12.6-48.6c3.9-6.7,6-11.3,6.1-17.8c0.1-7.2-2-17.3-6.4-34.6  C396.3,57.5,328.8,11.6,256.7,2c-36.2-4.9-73.5-0.6-107,12c-33.2,12.6-62.5,33.5-82.7,62c-92.8,131.1,37.4,222.9,39.4,315.2  c0.5,22.5-6.5,47.2-22.6,85.2L253.1,500c3.8-12.6,8.8-22.2,15.6-29c2.8-2.8,5.9-5.2,9.3-7c-12.7-3.8-24.3-8.4-34.9-13.9  C219.6,437.9,201.2,421.4,187.9,400.6L187.9,400.6z M328.4,75.4c27.3,27.3,44.1,65,44.1,106.6s-16.9,79.3-44.1,106.6  c-27.3,27.3-65,44.1-106.6,44.1c-41.6,0-79.3-16.9-106.6-44.1C88,261.3,71.1,223.6,71.1,182c0-41.6,16.9-79.3,44.1-106.6  c27.3-27.3,65-44.1,106.6-44.1S301.1,48.1,328.4,75.4L328.4,75.4z M221.8,16.8c45.6,0,86.9,18.5,116.8,48.4  C368.5,95.1,387,136.4,387,182s-18.5,86.9-48.4,116.8c-29.9,29.9-71.2,48.4-116.8,48.4s-86.9-18.5-116.8-48.4  C75.2,268.9,56.7,227.6,56.7,182s18.5-86.9,48.4-116.8C135,35.3,176.2,16.8,221.8,16.8L221.8,16.8z M184.2,163l19.6,19.6  c2.8,2.8,7.4,2.8,10.2,0l78.4-78.4l15.5-15.5l9.2,9.2L208.9,206.1L175,172.2L184.2,163L184.2,163z M287.3,88.9l15.5-15.5  c2.8-2.8,7.4-2.8,10.2,0l19.4,19.4c2.8,2.8,2.8,7.4,0,10.2l-34.3,34.3c1,2.1,2,4.2,2.8,6.3c1.5,3.8,2.9,7.7,3.9,11.8  c0.1,0.4,0.3,0.8,0.6,1c0.3,0.2,0.7,0.3,1.1,0.3h6.6c4.5,0,8.5,1.8,11.5,4.8c2.9,2.9,4.8,7,4.8,11.5v16.9c0,4.5-1.8,8.5-4.8,11.5  c-2.9,2.9-7,4.8-11.5,4.8v0l-6.6,0v0c-0.5,0-0.8,0.1-1.1,0.3c-0.3,0.2-0.5,0.5-0.6,1c-1.1,4.2-2.5,8.4-4.2,12.4  c-1.7,4-3.6,8-5.8,11.8c-0.2,0.4-0.3,0.8-0.3,1.1c0,0.3,0.2,0.7,0.6,1l4.7,4.7c3.2,3.2,4.7,7.3,4.7,11.5h0c0,4.2-1.6,8.3-4.7,11.5  l-12,12c-3.2,3.2-7.3,4.7-11.5,4.7c-4.1,0-8.3-1.6-11.5-4.7l-4.7-4.7c-0.3-0.3-0.7-0.5-1-0.6c-0.4,0-0.8,0-1.1,0.3  c-3.7,2.2-7.7,4.1-11.8,5.8l0,0c-4,1.7-8.2,3.1-12.4,4.2c-0.4,0.1-0.8,0.3-1,0.6c-0.2,0.3-0.3,0.7-0.3,1.1v6.6  c0,4.5-1.8,8.5-4.8,11.5c-2.9,2.9-7,4.8-11.5,4.8h-16.9c-4.5,0-8.5-1.8-11.5-4.8c-2.9-2.9-4.8-7-4.8-11.5V280c0-0.5-0.1-0.8-0.3-1.1  c-0.2-0.3-0.5-0.5-1-0.6c-4.2-1.1-8.4-2.5-12.4-4.2c-0.1-0.1-0.2-0.1-0.4-0.2c-4-1.7-7.8-3.5-11.4-5.6c-0.4-0.2-0.8-0.3-1.1-0.3  c-0.3,0-0.7,0.2-1,0.6l-4.7,4.7c-3.2,3.2-7.3,4.7-11.5,4.7c-4.1,0-8.3-1.6-11.5-4.7l-12-12c-3.2-3.2-4.7-7.3-4.7-11.5  c0-4.1,1.6-8.3,4.7-11.5l4.7-4.7c0.3-0.3,0.5-0.7,0.6-1c0-0.4,0-0.8-0.3-1.1c-2.2-3.8-4.1-7.7-5.8-11.8c-0.1-0.1-0.1-0.3-0.1-0.4  c-1.6-4-3-8-4.1-12c-0.1-0.4-0.3-0.8-0.6-1c-0.3-0.2-0.7-0.3-1.1-0.3h-6.6c-4.5,0-8.5-1.8-11.5-4.8c-2.9-2.9-4.8-7-4.8-11.5v-16.9  c0-4.5,1.8-8.5,4.8-11.5c2.9-2.9,7-4.8,11.5-4.8h6.6c0.5,0,0.8-0.1,1.1-0.3c0.3-0.2,0.5-0.5,0.6-1c1.1-4.2,2.5-8.4,4.2-12.4  c0.1-0.1,0.1-0.2,0.2-0.4c1.7-4,3.5-7.8,5.6-11.4c0.2-0.4,0.3-0.8,0.3-1.1c0-0.3-0.2-0.7-0.6-1l-4.7-4.7c-3.2-3.2-4.7-7.3-4.7-11.5  c0-4.1,1.6-8.3,4.7-11.5l12-12c3.2-3.2,7.3-4.7,11.5-4.7c4.1,0,8.3,1.6,11.5,4.7l4.7,4.7c0.3,0.3,0.7,0.5,1,0.6c0.4,0,0.8,0,1.1-0.3  c3.8-2.2,7.7-4.1,11.8-5.8c4-1.7,8.2-3.1,12.4-4.2c0.4-0.1,0.8-0.3,1-0.6c0.2-0.3,0.3-0.7,0.3-1.1h0l0-6.6h0c0-4.5,1.8-8.5,4.8-11.5  c2.9-2.9,7-4.8,11.5-4.8h16.9c4.5,0,8.5,1.8,11.5,4.8c2.9,2.9,4.8,7,4.8,11.5v6.6c0,0.5,0.1,0.8,0.3,1.1c0.2,0.3,0.5,0.5,1,0.6  c4.2,1.1,8.4,2.5,12.4,4.2c4,1.7,8,3.6,11.8,5.8c0.4,0.2,0.8,0.3,1.1,0.3c0.3,0,0.7-0.2,1-0.6l4.7-4.7c3.2-3.2,7.3-4.7,11.5-4.7  C280.3,84.7,284.2,86.1,287.3,88.9L287.3,88.9z M255.9,120.3c-5.8-4.6-12.3-8.3-19.3-11.1c-8.9-3.5-18.6-5.5-28.6-5.5  c-21.4,0-40.8,8.7-54.9,22.7c-14,14-22.7,33.4-22.7,54.9c0,21.4,8.7,40.8,22.7,54.9c14,14,33.4,22.7,54.9,22.7s40.8-8.7,54.9-22.7  c14-14,22.7-33.4,22.7-54.9c0-5.4-0.6-10.8-1.7-16c-0.8-3.7-1.8-7.3-3.1-10.7l6.4-6.4c0.1,0.3,0.2,0.6,0.3,0.8  c1.3,3.3,2.5,6.6,3.4,10.1c1,3.6,3,6.6,5.8,8.7c2.8,2.1,6.2,3.3,9.9,3.3h6.6c0.5,0,0.9,0.2,1.3,0.5c0.3,0.3,0.5,0.8,0.5,1.3v16.9  c0,0.5-0.2,0.9-0.5,1.3c-0.3,0.3-0.8,0.5-1.3,0.5v0l-6.6,0v0c-3.7,0-7.1,1.2-9.9,3.3c-2.8,2.1-4.8,5.1-5.8,8.7  c-1,3.7-2.2,7.2-3.6,10.6c-1.4,3.5-3.1,6.9-5,10.1c-1.8,3.2-2.5,6.8-2.1,10.2c0.5,3.5,2,6.8,4.6,9.4l4.7,4.7  c0.3,0.3,0.5,0.8,0.5,1.3h0c0,0.4-0.2,0.9-0.5,1.3l-12,12c-0.3,0.3-0.8,0.5-1.3,0.5c-0.5,0-0.9-0.2-1.3-0.5l-4.7-4.7  c-2.6-2.6-5.9-4.2-9.4-4.6c-3.4-0.5-7,0.2-10.2,2.1c-3.3,1.9-6.6,3.5-10,5l0,0l0,0c-3.4,1.4-7,2.6-10.6,3.6c-3.6,1-6.6,3-8.7,5.8  c-2.1,2.8-3.3,6.2-3.3,9.9v6.6c0,0.5-0.2,0.9-0.5,1.3c-0.3,0.3-0.8,0.5-1.3,0.5h-16.9c-0.5,0-0.9-0.2-1.3-0.5  c-0.3-0.3-0.5-0.8-0.5-1.3V280c0-3.7-1.2-7.1-3.3-9.9c-2.1-2.8-5.1-4.8-8.7-5.8c-3.7-1-7.2-2.2-10.6-3.6c-0.1,0-0.2-0.1-0.4-0.1  c-3.3-1.4-6.6-3-9.7-4.8c-3.2-1.8-6.8-2.5-10.2-2.1c-3.5,0.5-6.8,2-9.4,4.6l-4.7,4.7c-0.3,0.3-0.8,0.5-1.3,0.5  c-0.5,0-0.9-0.2-1.3-0.5l-12-12c-0.3-0.3-0.5-0.8-0.5-1.3c0-0.5,0.2-0.9,0.5-1.3l4.7-4.7c2.6-2.6,4.2-5.9,4.6-9.4  c0.5-3.4-0.2-7-2.1-10.2c-1.9-3.2-3.5-6.6-5-10.1c0-0.1-0.1-0.2-0.2-0.3c-1.3-3.3-2.5-6.7-3.4-10.3c-1-3.6-3-6.6-5.8-8.7  c-2.8-2.1-6.2-3.3-9.9-3.3h-6.6c-0.5,0-0.9-0.2-1.3-0.5c-0.3-0.3-0.5-0.8-0.5-1.3v-16.9c0-0.5,0.2-0.9,0.5-1.3  c0.3-0.3,0.8-0.5,1.3-0.5h6.6c3.7,0,7.1-1.2,9.9-3.3c2.8-2.1,4.8-5.1,5.8-8.7c1-3.7,2.2-7.2,3.6-10.6c0-0.1,0.1-0.2,0.1-0.4  c1.4-3.3,3-6.6,4.8-9.7c1.8-3.2,2.5-6.8,2.1-10.2c-0.5-3.5-2-6.8-4.6-9.4l-4.7-4.7c-0.3-0.3-0.5-0.8-0.5-1.3c0-0.5,0.2-0.9,0.5-1.3  l12-12c0.3-0.3,0.8-0.5,1.3-0.5s0.9,0.2,1.3,0.5l4.7,4.7c2.6,2.6,5.9,4.2,9.4,4.6c3.4,0.5,7-0.2,10.2-2.1c3.2-1.9,6.6-3.5,10.1-5  c3.4-1.4,7-2.6,10.6-3.6c3.6-1,6.6-3,8.7-5.8c2.1-2.8,3.3-6.2,3.3-9.9h0l0-6.6h0c0-0.5,0.2-0.9,0.5-1.3c0.3-0.3,0.8-0.5,1.3-0.5  h16.9c0.5,0,0.9,0.2,1.3,0.5c0.3,0.3,0.5,0.8,0.5,1.3v6.6c0,3.7,1.2,7.1,3.3,9.9c2.1,2.8,5.1,4.8,8.7,5.8c3.7,1,7.2,2.2,10.6,3.6  c3.5,1.4,6.9,3.1,10.1,5c3.2,1.8,6.8,2.5,10.2,2.1c3.5-0.5,6.8-2,9.4-4.6l4.7-4.7c0.3-0.3,0.8-0.5,1.3-0.5c0.2,0,0.4,0,0.6,0.1  L255.9,120.3L255.9,120.3z M159.7,167.1c-2.8,2.8-2.8,7.4,0,10.2l44.1,44.1c2.8,2.8,7.4,2.8,10.2,0l55.3-55.3  c0.2,0.7,0.3,1.4,0.5,2.1c0.9,4.2,1.3,8.6,1.3,13.1c0,17.4-7.1,33.2-18.5,44.7c-11.4,11.4-27.2,18.5-44.7,18.5  c-17.4,0-33.2-7.1-44.7-18.5c-11.4-11.4-18.5-27.2-18.5-44.7c0-17.4,7.1-33.2,18.5-44.7c11.4-11.4,27.2-18.5,44.7-18.5  c8.3,0,16.2,1.6,23.3,4.4c5.1,2,10,4.8,14.3,8l-36.8,36.8l-19.6-19.6c-2.8-2.8-7.4-2.8-10.2,0L159.7,167.1z"/><text x="0" y="515" fill="#000000" font-size="5px" font-weight="bold" font-family="'Helvetica Neue', Helvetica, Arial-Unicode, Arial, Sans-serif">Created by afian roc</text><text x="0" y="520" fill="#000000" font-size="5px" font-weight="bold" font-family="'Helvetica Neue', Helvetica, Arial-Unicode, Arial, Sans-serif">from the Noun Project</text></svg>